<svg width="100" height="100" viewBox="0 0 100 100" fill="none" xmlns="http://www.w3.org/2000/svg">
<rect width="97.561" height="91.5493" fill="white"/>
<path opacity="0.24" fill-rule="evenodd" clip-rule="evenodd" d="M0 50.5507C0 61.0934 3.03768 70.7003 8.03639 77.961C13.771 86.2931 22.0868 91.5317 31.3562 91.5493C35.4073 91.5568 39.2809 90.5608 42.839 88.7427C44.6787 87.8022 46.7377 87.9102 48.5196 89.0244C50.6096 90.3296 52.95 91.0615 55.4214 91.0615C56.4423 91.0615 57.442 90.9357 58.4091 90.6969C61.1695 90.0178 63.6815 88.4108 65.7444 86.1347C67.0408 84.7037 68.7013 83.9844 70.3983 83.9869H70.4272C76.0347 83.9869 81.2434 81.7663 85.5679 77.961C89.434 74.5634 92.5911 69.9005 94.6946 64.4257C96.5285 59.6548 97.561 54.2653 97.561 48.5613C97.561 28.9975 85.4118 13.1356 70.4272 13.1356C68.8996 13.1356 67.4029 13.3041 65.9428 13.6184C62.0767 5.4472 55.1535 0 47.2558 0C43.9214 0 40.7602 0.970852 37.9306 2.71119C35.2396 4.36088 32.8471 6.70504 30.8899 9.56181C24.2442 9.70015 18.0992 12.5346 13.0697 17.265C5.15273 24.7069 0 36.8441 0 50.5507Z" fill="url(#paint0_linear)"/>
<path d="M79.0468 8.45079C78.9756 8.45269 78.9055 8.45937 78.8354 8.47367C78.7663 8.48798 78.6992 8.508 78.6342 8.53471C78.5681 8.56045 78.5071 8.59288 78.4482 8.63102C78.3893 8.66917 78.3354 8.71208 78.2866 8.75976C78.2368 8.80745 78.1921 8.85894 78.1535 8.91521C78.1149 8.97147 78.0823 9.0306 78.0569 9.09258C78.0305 9.15457 78.0112 9.21751 77.998 9.28331C77.9848 9.34911 77.9787 9.41491 77.9797 9.48167C77.9797 17.477 73.4624 22.515 72.187 23.7786C71.9533 23.7414 71.7175 23.7176 71.4777 23.7176C69.7124 23.7176 68.1515 24.6703 66.4939 25.7336C64.8354 26.7969 63.0895 28.05 61.2866 28.9569C61.246 28.9769 61.2063 28.9988 61.1687 29.0236C61.184 29.0141 60.3151 29.4671 59.1555 29.983C57.996 30.4999 56.4258 31.1722 54.5732 31.9456C51.0356 33.4228 46.4502 35.269 41.7216 37.099C36.6372 32.8611 30.559 28.398 27.1901 25.6315C27.187 25.6306 27.185 25.6296 27.183 25.6277C26.2998 24.9125 25.3161 24.4862 24.3578 24.347C23.3994 24.2078 22.4675 24.3546 21.685 24.7838C20.1179 25.6439 19.3974 27.6018 20.1291 29.6616C20.1637 29.7589 20.2124 29.8495 20.2754 29.9324C20.3395 30.0154 20.4147 30.0879 20.5011 30.1508C20.5884 30.2128 20.683 30.2605 20.7856 30.2958C20.8872 30.3311 20.9939 30.3511 21.1027 30.3568H20.2704L23.3821 44.8521C22.0407 45.2193 19.8872 45.8048 18.1799 46.1052C17.9889 46.1395 17.8202 46.2149 17.6728 46.3341C17.5265 46.4523 17.4208 46.5973 17.3567 46.7699C17.2927 46.9415 17.2785 47.1161 17.3151 47.2953C17.3506 47.4737 17.433 47.632 17.559 47.7703C17.559 47.7703 20.7632 51.3054 25.1413 53.0362L26.7937 60.7388C24.8598 59.9654 21.8191 59.2015 17.6149 61.475C17.5529 61.5084 17.495 61.5475 17.4421 61.5913C17.3882 61.6352 17.3405 61.6838 17.2968 61.7372C17.2531 61.7897 17.2165 61.8469 17.185 61.906C17.1535 61.9661 17.1281 62.0281 17.1098 62.093C17.0915 62.1578 17.0803 62.2226 17.0752 62.2894C17.0712 62.3562 17.0732 62.4229 17.0824 62.4887C17.0915 62.5555 17.1078 62.6194 17.1301 62.6833C17.1535 62.7462 17.183 62.8063 17.2185 62.8644C17.2541 62.9226 17.2948 62.976 17.3415 63.0266C17.3882 63.0771 17.4401 63.1219 17.497 63.1629C17.5529 63.2039 17.6128 63.2392 17.6769 63.2688C17.7409 63.2984 17.8069 63.3212 17.8761 63.3394C17.9441 63.3565 18.0143 63.367 18.0854 63.3718C18.1565 63.3766 18.2267 63.3737 18.2978 63.3651C18.3679 63.3565 18.437 63.3422 18.5041 63.3203C18.5722 63.2993 18.6362 63.2717 18.6982 63.2392C23.8537 60.4508 27.6088 63.1772 27.6088 63.1772C27.6972 63.2373 27.7927 63.284 27.8954 63.3174C27.999 63.3508 28.1047 63.3689 28.2145 63.3718C28.3232 63.3756 28.4309 63.3632 28.5356 63.3365C28.6413 63.3088 28.7399 63.2678 28.8313 63.2125C28.9238 63.1572 29.0041 63.0905 29.0752 63.0123C29.1454 62.9341 29.2023 62.8482 29.245 62.7538C29.2876 62.6594 29.3151 62.5621 29.3252 62.4601C29.3364 62.3581 29.3313 62.257 29.31 62.1568L28.0976 56.5104C28.1718 56.4331 28.2328 56.3482 28.2795 56.2538C30.7968 51.0927 30.4208 46.1872 29.8039 42.6282C31.1443 44.3114 32.6718 46.1758 33.7673 47.5376C33.8954 47.6949 34.0569 47.8084 34.2541 47.8771L34.2571 47.879L34.2653 47.8809C34.3842 47.9209 34.5071 47.941 34.6332 47.941C34.8039 47.94 34.9655 47.9047 35.1169 47.8332C35.2693 47.7607 35.3974 47.6615 35.499 47.5338C35.5 47.5338 35.5 47.5338 35.501 47.5338V47.5318C35.6037 47.4031 35.6697 47.2601 35.6992 47.1027C35.7297 46.9454 35.7206 46.7899 35.6728 46.6354C35.6352 46.5181 35.5773 46.4104 35.499 46.3121C33.7267 44.1111 31.81 41.4104 28.809 38.0307C28.7033 37.9115 28.5742 37.82 28.4238 37.7551C28.2734 37.6913 28.1149 37.6617 27.9492 37.6655C27.8659 37.6674 27.7846 37.6779 27.7043 37.697C27.624 37.717 27.5468 37.7447 27.4726 37.7809C27.3994 37.8171 27.3313 37.86 27.2683 37.9115C27.2053 37.9621 27.1494 38.0193 27.1006 38.0822C27.0508 38.1452 27.0102 38.2119 26.9777 38.2844C26.9452 38.3559 26.9218 38.4303 26.9076 38.5066C26.8933 38.5839 26.8893 38.6611 26.8933 38.7393C26.8984 38.8165 26.9126 38.8928 26.936 38.9682C26.936 38.9682 29.1108 46.2168 27.2937 52.7683L22.2195 29.139L22.2175 29.1409C22.2094 29.0999 22.1982 29.0589 22.184 29.0179C21.688 27.6227 22.1271 26.8961 22.7765 26.5394C23.4258 26.1837 24.5336 26.1675 25.7673 27.1669L25.7632 27.1612C29.2907 30.0574 35.4726 34.591 40.5112 38.8089C40.6352 39.013 40.813 39.1599 41.0447 39.2476C41.187 39.3687 41.3486 39.4936 41.4889 39.6138C41.5722 39.6844 41.6657 39.7425 41.7683 39.7864C41.871 39.8303 41.9787 39.8579 42.0905 39.8703C42.2023 39.8827 42.3141 39.8789 42.4248 39.8589C42.5356 39.8388 42.6403 39.8026 42.7389 39.7521C42.8384 39.7015 42.9258 39.6376 43.0041 39.5604C43.0813 39.4831 43.1454 39.3973 43.1941 39.3019C43.2429 39.2066 43.2754 39.1065 43.2907 39.0016C43.3069 38.8967 43.3049 38.7927 43.2856 38.6878C47.7612 36.9484 52.0854 35.2108 55.4533 33.8042C57.3171 33.0261 58.8994 32.348 60.0844 31.8207C61.2521 31.3 61.9035 31.0206 62.3943 30.6963C64.373 29.6893 66.1575 28.4133 67.7165 27.4139C69.2998 26.3983 70.6697 25.7507 71.4777 25.7507C72.2754 25.7507 73.3638 26.3172 74.2571 27.5503C75.1504 28.7843 75.813 30.6238 75.813 32.8687C75.813 35.66 74.5854 37.9535 72.9868 39.5642C71.3893 41.1739 69.376 42.0208 68.2267 42.0208C68.0478 42.0208 67.9279 41.9874 67.7084 41.8138C67.4888 41.6403 67.2063 41.3065 66.9208 40.8087C66.3496 39.814 65.7673 38.1967 65.1626 36.112C65.1352 36.0176 65.0935 35.928 65.0386 35.8441C64.9828 35.7611 64.9167 35.6858 64.8384 35.6209C64.7602 35.5551 64.6738 35.5017 64.5783 35.4597C64.4838 35.4178 64.3842 35.3892 64.2805 35.3739C64.1779 35.3596 64.0732 35.3587 63.9695 35.372C63.8659 35.3854 63.7663 35.4121 63.6708 35.4521C63.5752 35.4931 63.4878 35.5456 63.4086 35.6095C63.3293 35.6734 63.2612 35.7477 63.2043 35.8297C62.0305 37.5511 59.2368 42.3784 55.0265 46.8424C50.8161 51.3063 45.3161 55.2392 38.9685 55.2392C35.7998 55.2392 33.622 54.2722 33.622 54.2722C33.5569 54.2407 33.4899 54.2159 33.4197 54.1968C33.3496 54.1787 33.2785 54.1663 33.2063 54.1615C33.1332 54.1558 33.061 54.1577 32.9889 54.1663C32.9167 54.1749 32.8456 54.1902 32.7775 54.2111C32.7084 54.2331 32.6423 54.2617 32.5793 54.296C32.5163 54.3303 32.4574 54.3704 32.4035 54.4152C32.3486 54.461 32.2998 54.5106 32.2561 54.5649C32.2124 54.6202 32.1748 54.6784 32.1443 54.7394C32.1128 54.8014 32.0884 54.8653 32.0712 54.9321C32.0539 54.9979 32.0437 55.0656 32.0407 55.1333C32.0376 55.202 32.0417 55.2697 32.0539 55.3374C32.0651 55.4051 32.0834 55.4699 32.1098 55.5338C32.1352 55.5977 32.1677 55.6588 32.2063 55.7169C32.245 55.7741 32.2897 55.8285 32.3395 55.8771C32.3903 55.9267 32.4452 55.9706 32.5051 56.0097C32.5651 56.0488 32.6281 56.0822 32.6952 56.1089C32.6952 56.1089 35.3181 57.2733 38.9685 57.2733C44.9157 57.2733 49.9746 54.3265 54.0376 50.7075L52.0356 55.9105C51.9899 56.0278 51.9685 56.1489 51.9716 56.2739C51.9736 56.3997 52 56.5199 52.0498 56.6353C52.0996 56.7516 52.1697 56.8556 52.2602 56.9471C52.3506 57.0387 52.4553 57.1121 52.5752 57.1674L60.5021 60.838C60.6535 60.9076 60.8141 60.9429 60.9838 60.9429C61.1525 60.9419 61.313 60.9066 61.4645 60.8361C61.4645 60.8361 62.0224 60.5814 62.686 60.4823C63.3486 60.3831 63.8791 60.4279 64.2399 60.8342C64.2846 60.8847 64.3354 60.9314 64.3913 60.9734C64.4462 61.0153 64.5051 61.0525 64.5681 61.0831C64.6311 61.1145 64.6972 61.1393 64.7653 61.1584C64.8334 61.1775 64.9035 61.1899 64.9746 61.1956C65.0447 61.2013 65.1159 61.2013 65.187 61.1937C65.2571 61.187 65.3273 61.1736 65.3954 61.1536C65.4624 61.1336 65.5285 61.1078 65.5905 61.0754C65.6535 61.044 65.7114 61.0068 65.7663 60.9638C65.8212 60.9209 65.871 60.8733 65.9157 60.8218C65.9604 60.7693 65.999 60.714 66.0325 60.6549C66.0651 60.5957 66.0925 60.5347 66.1118 60.4699C66.1321 60.406 66.1454 60.3411 66.1525 60.2744C66.1586 60.2076 66.1575 60.1409 66.1504 60.0751C66.1433 60.0083 66.1291 59.9435 66.1078 59.8796C66.0864 59.8157 66.059 59.7546 66.0244 59.6955C65.9909 59.6373 65.9502 59.582 65.9055 59.5305C64.9004 58.3995 63.3852 58.3175 62.3435 58.4739C61.6352 58.5807 61.3994 58.7161 61.0874 58.842L54.4035 55.7455L57.5976 47.4498C57.6474 47.3278 57.6708 47.2019 57.6677 47.0712C58.0254 46.6688 58.3669 46.2721 58.6962 45.8792L58.4736 52.1551C58.4695 52.2752 58.4878 52.3925 58.5275 52.507C58.5671 52.6205 58.6271 52.7254 58.7063 52.8198C58.7866 52.9142 58.8801 52.9924 58.9899 53.0553C59.0986 53.1183 59.2165 53.1621 59.3415 53.186L66.3557 54.5239C66.6006 54.5707 66.8334 54.5411 67.0569 54.4371C67.0569 54.4371 67.6149 54.1825 68.2775 54.0833C68.9411 53.9842 69.4716 54.029 69.8313 54.4352C69.8771 54.4858 69.9279 54.5325 69.9828 54.5745C70.0376 54.6164 70.0976 54.6536 70.1606 54.6841C70.2236 54.7156 70.2886 54.7404 70.3578 54.7595C70.4258 54.7785 70.4949 54.7909 70.5661 54.7967C70.6372 54.8024 70.7084 54.8024 70.7785 54.7948C70.8496 54.7881 70.9187 54.7747 70.9868 54.7547C71.0549 54.7347 71.1199 54.7089 71.183 54.6775C71.2449 54.645 71.3039 54.6078 71.3588 54.5649C71.4126 54.522 71.4624 54.4743 71.5071 54.4228C71.5519 54.3713 71.5915 54.3151 71.624 54.256C71.6575 54.1968 71.684 54.1358 71.7043 54.0709C71.7246 54.0071 71.7378 53.9422 71.7439 53.8755C71.75 53.8087 71.75 53.7429 71.7419 53.6761C71.7348 53.6094 71.7206 53.5445 71.6992 53.4806C71.6779 53.4168 71.6504 53.3557 71.6169 53.2966C71.5823 53.2384 71.5427 53.1831 71.497 53.1316C70.4929 52.0016 68.9767 51.9195 67.935 52.0759C67.1504 52.1932 66.8181 52.3697 66.5447 52.485L60.6708 51.3626L60.9655 42.982C62.1819 41.3179 63.1342 39.8436 63.8567 38.7136C64.2277 39.7835 64.5762 41.0109 65.0143 41.7738C65.3811 42.4137 65.7866 42.9534 66.312 43.3692C66.8364 43.784 67.5193 44.0539 68.2267 44.0539C70.3293 44.0539 72.6504 42.8886 74.5742 40.9498C76.498 39.012 77.9797 36.2207 77.9797 32.8687C77.9797 30.5132 77.3618 28.4791 76.3842 26.9151C78.4655 25.7679 84.4817 21.8408 84.4817 14.5665C84.4827 14.4978 84.4766 14.4311 84.4634 14.3633C84.4502 14.2966 84.4299 14.2317 84.4025 14.1688C84.375 14.1059 84.3415 14.0458 84.3008 13.9895C84.2612 13.9333 84.2155 13.8808 84.1636 13.8322C84.1128 13.7845 84.0569 13.7416 83.996 13.7044C83.936 13.6662 83.872 13.6348 83.8049 13.609C83.7378 13.5842 83.6687 13.5651 83.5966 13.5528C83.5254 13.5404 83.4543 13.5346 83.3811 13.5356C83.31 13.5365 83.2399 13.5442 83.1708 13.5575C83.1006 13.5718 83.0336 13.5919 82.9685 13.6186C82.9035 13.6453 82.8415 13.6777 82.7825 13.7149C82.7246 13.753 82.6708 13.7959 82.621 13.8436C82.5712 13.8913 82.5275 13.9437 82.4888 13.9991C82.4502 14.0553 82.4177 14.1144 82.3913 14.1764C82.3649 14.2384 82.3456 14.3023 82.3323 14.3681C82.3191 14.433 82.3141 14.4997 82.3151 14.5665C82.3151 21.0674 76.5895 24.4958 75.0742 25.2901C74.8161 25.046 74.5417 24.8343 74.2592 24.6407C76.125 22.5952 80.1474 17.292 80.1474 9.48167C80.1484 9.41396 80.1423 9.34625 80.1291 9.2795C80.1149 9.21274 80.0945 9.1479 80.0671 9.08496C80.0407 9.02202 80.0061 8.96194 79.9665 8.90567C79.9258 8.84845 79.8801 8.796 79.8293 8.74832C79.7775 8.70064 79.7216 8.65773 79.6616 8.61958C79.6006 8.58239 79.5376 8.55092 79.4695 8.52517C79.4025 8.49942 79.3334 8.48035 79.2622 8.46795C79.1911 8.45555 79.1189 8.44983 79.0468 8.45079ZM72.0285 31.6433C71.8943 31.6433 71.7612 31.6557 71.6291 31.6805C71.497 31.7053 71.3689 31.7415 71.2449 31.7892C71.121 31.8378 71.0031 31.8969 70.8913 31.9675C70.7795 32.0371 70.6758 32.1163 70.5813 32.2059C70.4858 32.2946 70.4015 32.3919 70.3262 32.4968C70.2521 32.6017 70.1891 32.7123 70.1372 32.8286C70.0854 32.9459 70.0468 33.0661 70.0204 33.1891C69.9949 33.3131 69.9817 33.438 69.9817 33.5639C69.9817 33.6898 69.9949 33.8147 70.0214 33.9387C70.0478 34.0617 70.0864 34.1819 70.1382 34.2982C70.1891 34.4146 70.2521 34.5252 70.3273 34.6301C70.4015 34.735 70.4868 34.8322 70.5813 34.9209C70.6769 35.0096 70.7795 35.0897 70.8913 35.1593C71.0031 35.2299 71.121 35.2881 71.2449 35.3367C71.3699 35.3854 71.497 35.4216 71.6291 35.4454C71.7612 35.4702 71.8943 35.4826 72.0285 35.4826C72.1626 35.4826 72.2958 35.4702 72.4269 35.4454C72.559 35.4206 72.686 35.3844 72.81 35.3358C72.934 35.2881 73.0519 35.229 73.1636 35.1584C73.2754 35.0888 73.3791 35.0096 73.4736 34.92C73.5681 34.8313 73.6535 34.734 73.7277 34.6301C73.8029 34.5252 73.8659 34.4146 73.9167 34.2982C73.9685 34.1819 74.0071 34.0617 74.0336 33.9387C74.06 33.8147 74.0732 33.6898 74.0732 33.5639C74.0732 33.438 74.06 33.3131 74.0336 33.1901C74.0071 33.0661 73.9685 32.9459 73.9177 32.8296C73.8659 32.7133 73.8029 32.6026 73.7287 32.4977C73.6545 32.3928 73.5691 32.2956 73.4746 32.2069C73.3791 32.1172 73.2764 32.0381 73.1647 31.9675C73.0529 31.8979 72.935 31.8388 72.811 31.7901C72.687 31.7415 72.559 31.7053 72.4269 31.6805C72.2958 31.6557 72.1626 31.6433 72.0285 31.6433ZM45.1057 40.4558L44.2378 40.8631L44.0671 41.7604L44.7317 42.4251L45.1057 42.489L45.9736 42.0799L46.1454 41.1844L45.4828 40.5188L45.1057 40.4558ZM46.8222 44.094L45.9543 44.5031L45.7836 45.4005L46.4462 46.0661L46.8222 46.1271L47.6901 45.7199L47.8618 44.8226L47.1972 44.1569L46.8222 44.094ZM23.8069 46.8242L24.6057 50.5444C22.8171 49.6241 21.4584 48.4864 20.5183 47.6291C21.8252 47.3173 22.8923 47.0531 23.8069 46.8242ZM45.2795 47.7855L44.4116 48.1946L44.2399 49.0901L44.9045 49.7557L45.2795 49.8196L46.1474 49.4105L46.3191 48.515L45.6565 47.8494L45.2795 47.7855ZM37.495 48.948L36.625 49.3571L36.4553 50.2526L37.1179 50.9201L37.495 50.9812L38.3628 50.574L38.5346 49.6766L37.87 49.0109L37.495 48.948ZM41.5986 49.7796L40.7307 50.1868L40.56 51.0842L41.2226 51.7498L41.5986 51.8137L42.4665 51.4046L42.6382 50.5082L41.9736 49.8435L41.5986 49.7796Z" fill="black"/>
<path d="M29.94 82H27.85L23.34 74.57L20.83 77.44V82H18.91V67.54H20.83V75.02L27.31 67.54H29.52L24.69 73.22L29.94 82ZM34.847 82.2C33.8404 82.2 33.0204 81.9367 32.387 81.41C31.7537 80.8833 31.437 80.1467 31.437 79.2C31.437 78.0533 31.837 77.2 32.637 76.64C33.437 76.08 34.7204 75.78 36.487 75.74L38.337 75.69V74.88C38.337 74.2467 38.1437 73.7467 37.757 73.38C37.377 73.0067 36.7904 72.82 35.997 72.82C35.4037 72.8267 34.8804 72.97 34.427 73.25C33.9737 73.5233 33.6837 73.9667 33.557 74.58H31.927C31.9804 73.5733 32.3737 72.8033 33.107 72.27C33.8404 71.73 34.8337 71.46 36.087 71.46C37.4337 71.46 38.4404 71.7433 39.107 72.31C39.7804 72.8767 40.117 73.7 40.117 74.78V82H38.537L38.407 80.06C38.0004 80.8667 37.4904 81.4267 36.877 81.74C36.2637 82.0467 35.587 82.2 34.847 82.2ZM35.407 80.87C35.867 80.87 36.3204 80.76 36.767 80.54C37.2204 80.32 37.5937 80.04 37.887 79.7C38.1804 79.3533 38.3304 78.9867 38.337 78.6V76.83L36.797 76.86C35.6104 76.88 34.7204 77.0567 34.127 77.39C33.5337 77.7167 33.237 78.26 33.237 79.02C33.237 79.6067 33.437 80.0633 33.837 80.39C34.2437 80.71 34.767 80.87 35.407 80.87ZM48.0411 73.01H45.7111V79.44C45.7111 79.9933 45.7978 80.3333 45.9711 80.46C46.1511 80.58 46.4844 80.64 46.9711 80.64H48.1011V81.88C47.9678 81.9267 47.7744 81.9667 47.5211 82C47.2678 82.0333 46.9511 82.05 46.5711 82.05C45.4978 82.05 44.7744 81.8333 44.4011 81.4C44.0344 80.9667 43.8511 80.3333 43.8511 79.5V73.01H42.1711V71.66H43.9011L44.3511 68.65H45.7111V71.65H48.0411V73.01ZM51.7961 85.3C51.1894 85.3 50.7728 85.2567 50.5461 85.17C50.3194 85.0833 50.2061 85.04 50.2061 85.04V83.84L51.2561 83.86C51.7694 83.88 52.1661 83.83 52.4461 83.71C52.7328 83.59 52.9428 83.44 53.0761 83.26C53.2094 83.08 53.3128 82.9033 53.3861 82.73L53.7461 81.75L49.7061 71.66H51.5761L54.6261 79.64L57.6561 71.66H59.4661L55.1061 82.78C54.7061 83.7667 54.2328 84.4333 53.6861 84.78C53.1394 85.1267 52.5094 85.3 51.7961 85.3ZM64.7991 82.2C63.4524 82.2 62.3857 81.74 61.5991 80.82C60.8191 79.9 60.4291 78.5567 60.4291 76.79C60.4291 75.1767 60.7824 73.8867 61.4891 72.92C62.2024 71.9467 63.2591 71.46 64.6591 71.46C65.3124 71.46 65.8691 71.5667 66.3291 71.78C66.7957 71.9933 67.1691 72.2433 67.4491 72.53C67.7357 72.8167 67.9357 73.0733 68.0491 73.3V67.14H69.9091V82H68.4991L68.2991 79.88C68.2124 80.1467 68.0491 80.4633 67.8091 80.83C67.5691 81.1967 67.2091 81.5167 66.7291 81.79C66.2491 82.0633 65.6057 82.2 64.7991 82.2ZM65.1291 80.78C66.1757 80.78 66.9224 80.4633 67.3691 79.83C67.8224 79.19 68.0491 78.1467 68.0491 76.7C68.0357 75.4933 67.8091 74.56 67.3691 73.9C66.9291 73.2333 66.1957 72.9 65.1691 72.9C64.3224 72.9 63.6291 73.2033 63.0891 73.81C62.5557 74.41 62.2891 75.3733 62.2891 76.7C62.2891 77.9933 62.5291 78.9967 63.0091 79.71C63.4957 80.4233 64.2024 80.78 65.1291 80.78ZM75.1403 67.55V69.47H73.2503V67.55H75.1403ZM75.1003 71.66V82H73.3103V71.66H75.1003ZM82.0842 82.2C80.7376 82.2 79.6709 81.74 78.8842 80.82C78.1042 79.9 77.7142 78.5567 77.7142 76.79C77.7142 75.1767 78.0676 73.8867 78.7742 72.92C79.4876 71.9467 80.5442 71.46 81.9442 71.46C82.5976 71.46 83.1542 71.5667 83.6142 71.78C84.0809 71.9933 84.4542 72.2433 84.7342 72.53C85.0209 72.8167 85.2209 73.0733 85.3342 73.3V67.14H87.1942V82H85.7842L85.5842 79.88C85.4976 80.1467 85.3342 80.4633 85.0942 80.83C84.8542 81.1967 84.4942 81.5167 84.0142 81.79C83.5342 82.0633 82.8909 82.2 82.0842 82.2ZM82.4142 80.78C83.4609 80.78 84.2076 80.4633 84.6542 79.83C85.1076 79.19 85.3342 78.1467 85.3342 76.7C85.3209 75.4933 85.0942 74.56 84.6542 73.9C84.2142 73.2333 83.4809 72.9 82.4542 72.9C81.6076 72.9 80.9142 73.2033 80.3742 73.81C79.8409 74.41 79.5742 75.3733 79.5742 76.7C79.5742 77.9933 79.8142 78.9967 80.2942 79.71C80.7809 80.4233 81.4876 80.78 82.4142 80.78Z" fill="black"/>
<defs>
<linearGradient id="paint0_linear" x1="66.8313" y1="107.833" x2="118.235" y2="15.236" gradientUnits="userSpaceOnUse">
<stop stop-color="#80EFDB"/>
<stop offset="1" stop-color="#06DEDE" stop-opacity="0.01"/>
</linearGradient>
</defs>
</svg>
