<svg width="375" height="368" viewBox="0 0 375 368" fill="none" xmlns="http://www.w3.org/2000/svg">
<path d="M110.163 1.0713C109.595 5.31224 107.893 7.56249 105.85 11.1976C103.694 14.8327 103.807 19.5064 102.105 23.4011C99.4949 29.1134 94.3878 37.855 95.9766 43.9135C96.4306 45.8176 100.289 46.5965 101.878 45.1251C104.602 42.7017 104.488 39.6725 105.169 36.6433C106.191 31.7965 107.552 27.0362 109.141 22.276C110.844 17.4292 109.709 12.7555 112.205 7.99528C113.567 5.39879 113.113 3.66779 113.227 1.0713C113.227 -0.400047 110.39 -0.313497 110.163 1.0713Z" fill="black"/>
<path d="M101.424 11.5438C107.212 9.72624 114.93 7.21628 121.171 9.20693C128.435 11.6303 121.058 17.6023 116.291 18.4678C113.227 19.0736 109.823 18.9871 106.645 19.3333C101.878 19.8526 103.808 25.738 108.688 24.8725C118.561 23.0549 120.604 45.1251 122.306 48.5871C124.009 52.049 131.499 50.4046 129.569 47.0292C126.846 42.0093 126.959 36.297 123.895 31.104C120.377 25.4783 116.518 22.6222 109.595 19.5064C108.914 21.2374 108.347 23.0549 107.666 24.7859C116.859 25.3917 134.79 21.0642 129.002 11.3707C123.554 2.3695 109.482 6.17772 100.289 9.29351C98.8142 10.0725 99.949 12.0631 101.424 11.5438Z" fill="black"/>
<path d="M247.596 25.4785C247.029 29.7194 245.326 31.9698 243.284 35.6048C241.127 39.2399 241.241 43.9137 239.538 47.8084C236.928 53.5207 231.821 62.2622 233.41 68.3206C233.864 70.2247 237.723 71.0037 239.312 69.5324C242.035 67.109 241.922 64.0797 242.603 61.0505C243.624 56.2037 244.986 51.4434 246.575 46.6832C248.277 41.8364 247.142 37.1627 249.639 32.4025C251.001 29.806 250.547 28.075 250.66 25.4785C250.774 24.0072 247.823 24.0072 247.596 25.4785Z" fill="black"/>
<path d="M238.971 35.9501C244.759 34.1325 252.476 31.6226 258.718 33.6132C265.981 36.0366 258.605 42.0085 253.838 42.874C250.774 43.4799 247.369 43.3933 244.192 43.7395C239.425 44.2588 241.355 50.1442 246.235 49.2787C256.108 47.4611 258.151 69.5313 259.853 72.9933C261.555 76.4553 269.046 74.8108 267.116 71.4354C264.393 66.4155 264.506 60.7033 261.442 55.5103C257.924 49.8845 254.065 47.0284 247.143 43.9126C246.462 45.6436 245.894 47.4612 245.213 49.1922C254.406 49.798 272.337 45.4705 266.549 35.7769C261.101 26.7758 247.029 30.5839 237.836 33.6997C236.361 34.3921 237.382 36.3828 238.971 35.9501Z" fill="black"/>
<path d="M149.089 18.4673C142.961 27.4685 130.023 48.5 149.429 53.6065C156.579 55.5106 165.091 51.4427 169.971 48.0673C177.347 42.9609 176.78 35.5176 174.624 28.8533C172.694 23.2275 173.489 17.0825 164.523 15.8708C160.778 15.3515 152.267 15.3515 150.905 18.9866C149.656 22.362 157.033 25.5644 160.211 26.3433C168.382 28.2474 176.666 27.7281 183.135 23.141C184.157 22.4486 183.135 20.9773 181.773 21.41C172.354 24.0931 164.183 26.8626 155.104 21.4965C156.125 17.7749 158.735 16.9094 162.821 18.9001C166.226 20.1117 164.977 23.0544 164.75 25.0451C164.41 28.507 167.587 33.0077 168.041 36.5562C169.063 45.4708 147.614 54.1258 146.706 41.1433C146.138 34.3059 149.883 25.9106 152.38 19.3328C152.721 18.0346 149.997 17.0825 149.089 18.4673Z" fill="black"/>
<path d="M189.944 57.7614C193.916 54.1264 196.98 49.972 199.704 45.6445C203.109 40.4515 207.308 35.7778 211.053 30.7579C214.571 25.9977 216.5 32.5754 216.614 34.5661C216.727 37.855 215.138 41.4035 214.117 44.6059C212.074 50.4047 207.535 55.4246 205.152 61.0503C204.698 62.1755 206.854 63.214 207.875 62.262C214.004 56.3766 216.727 48.5006 218.997 41.4035C220.359 37.076 222.856 27.469 216.387 24.6129C211.393 22.3626 204.698 28.3345 202.314 30.7579C195.051 38.1146 189.15 47.2024 186.313 56.117C185.859 57.6749 188.469 59.0597 189.944 57.7614Z" fill="black"/>
<path d="M189.15 43.9999C194.598 43.9134 198.91 40.9706 204.244 40.1917C212.983 38.8934 219.111 36.9894 228.303 38.8069C230.006 39.1531 230.573 37.3355 228.984 36.9028C221.948 34.9121 214.344 34.8256 206.968 34.6525C204.244 34.566 200.953 35.4315 198.456 35.9508C195.052 36.7297 192.668 39.759 189.15 40.1052C185.973 40.3648 185.632 43.9999 189.15 43.9999Z" fill="black"/>
<path d="M94.0472 59.8381C95.7496 59.9247 97.7923 60.1843 99.3811 59.8381C100.743 59.5785 100.743 58.0206 99.3811 57.7609C97.6788 57.4147 95.7496 57.6744 94.0472 57.7609C92.3449 57.8475 92.3449 59.7516 94.0472 59.8381Z" fill="black"/>
<path d="M102.786 67.6277C104.261 67.8874 105.51 67.5412 106.872 67.4546C108.46 67.3681 110.163 67.1085 111.752 66.8488C113.113 66.6757 113.113 65.0313 111.752 64.7716C110.276 64.512 108.914 64.512 107.439 64.6851C106.077 64.8582 104.602 65.464 103.126 65.3775C101.538 65.3775 101.197 67.3681 102.786 67.6277Z" fill="black"/>
<path d="M123.782 61.4835C126.278 61.8297 128.548 61.2238 130.931 60.7045C132.407 60.4449 132.066 58.6274 130.591 58.7139C128.321 58.8005 126.278 59.7525 124.122 59.7525C122.76 59.666 122.533 61.2238 123.782 61.4835Z" fill="black"/>
<path d="M124.121 71.2623C126.051 71.2623 127.526 70.3967 129.455 70.1371C131.044 69.964 131.157 68.233 129.455 68.1465C128.434 68.1465 127.639 68.233 126.732 68.5792C125.937 68.8389 125.029 69.2716 124.121 69.2716C122.532 69.4447 122.419 71.3488 124.121 71.2623Z" fill="black"/>
<path d="M147.16 69.2729C147.954 68.9268 149.316 69.1864 150.224 69.1864C151.926 69.0999 151.926 67.3689 150.224 67.1959C148.749 67.0228 147.046 66.9362 145.684 67.5421C144.209 68.0613 145.571 69.8788 147.16 69.2729Z" fill="black"/>
<path d="M147.387 76.2832C149.656 77.1487 152.38 77.2351 154.877 76.6293C156.466 76.1966 155.785 74.4656 154.196 74.8118C152.493 75.158 150.337 75.2446 148.635 74.7253C147.16 74.1195 145.911 75.6774 147.387 76.2832Z" fill="black"/>
<path d="M166.226 67.1099C166.112 67.3695 166.907 67.0233 167.247 67.0233C167.814 66.9368 168.382 66.8502 168.949 66.6771C170.538 66.1578 169.971 64.4269 168.269 64.6865C166.453 64.9462 164.183 64.9461 163.389 66.504C162.594 67.8023 165.545 68.4947 166.226 67.1099Z" fill="black"/>
<path d="M172.468 76.1094C173.149 75.7632 174.17 75.9364 174.851 76.0229C175.759 76.1095 176.667 76.196 177.575 76.196C179.164 76.2825 179.277 74.5516 177.915 74.2054C175.873 73.7726 172.922 73.2533 170.992 74.2919C169.631 75.0709 170.992 76.8019 172.468 76.1094Z" fill="black"/>
<path d="M178.028 84.5917C179.05 84.5917 179.958 84.5917 180.979 84.5917C182.568 84.5917 182.568 82.6875 180.979 82.6875C179.958 82.6875 179.05 82.6875 178.028 82.6875C176.326 82.6875 176.326 84.5917 178.028 84.5917Z" fill="black"/>
<path d="M199.25 75.2435C200.272 74.8107 201.86 74.9838 202.995 75.1569C204.471 75.33 204.698 73.5125 203.336 73.2529C201.634 72.8201 199.477 72.8201 197.888 73.5125C196.413 74.1183 197.775 75.8493 199.25 75.2435Z" fill="black"/>
<path d="M186.88 69.0137C187.674 68.6675 188.809 68.9272 189.717 68.9272C191.42 68.8406 191.42 67.0231 189.717 66.9365C188.242 66.85 186.767 66.7634 185.518 67.2827C184.043 67.8886 185.405 69.6195 186.88 69.0137Z" fill="black"/>
<path d="M193.576 89.3517C195.165 89.2652 196.754 88.919 198.343 88.8325C200.045 88.7459 200.045 86.8418 198.343 86.8418C196.754 86.8418 195.165 87.188 193.576 87.188C191.76 87.2746 191.76 89.4383 193.576 89.3517Z" fill="black"/>
<path d="M209.578 98.44C210.713 97.8341 212.302 98.0072 213.664 97.661C215.253 97.2282 214.572 95.3241 212.983 95.7569C211.394 96.1896 209.692 96.0165 208.216 96.7089C206.741 97.4013 208.103 99.2189 209.578 98.44Z" fill="black"/>
<path d="M217.522 85.2846C218.884 84.5922 220.7 84.9384 222.175 84.6788C223.764 84.5057 223.083 82.6881 221.494 82.8612C219.678 83.1209 217.863 82.7747 216.16 83.6402C214.912 84.4192 216.16 86.0636 217.522 85.2846Z" fill="black"/>
<path d="M222.743 76.8879C224.104 76.8879 225.466 77.2341 226.828 77.3206C228.53 77.3206 228.53 75.4165 226.828 75.3299C225.466 75.2434 224.104 74.8972 222.743 74.8972C221.04 74.8106 221.04 76.8879 222.743 76.8879Z" fill="black"/>
<path d="M242.148 83.9002C243.85 83.9002 245.439 83.9002 247.142 83.9002C248.731 83.9002 248.731 81.9961 247.142 81.9961C245.439 81.9961 243.85 81.9961 242.148 81.9961C240.559 81.9961 240.559 83.9002 242.148 83.9002Z" fill="black"/>
<path d="M233.07 89.6973C232.956 89.6973 232.843 89.6973 232.729 89.6973C231.027 89.6973 231.027 91.6878 232.729 91.6878C234.545 91.6878 236.248 91.6878 238.063 91.6878C239.652 91.6878 239.652 89.7838 238.063 89.7838C236.248 89.7838 234.545 89.7838 232.729 89.7838C231.027 89.7838 231.027 91.7744 232.729 91.7744C232.843 91.7744 232.956 91.7744 233.07 91.7744C234.772 91.6878 234.772 89.6973 233.07 89.6973Z" fill="black"/>
<path d="M255.994 99.9971C257.356 99.9971 258.605 99.8241 259.853 99.651C261.442 99.4779 260.874 97.7469 259.512 97.6603C258.378 97.5738 257.129 97.7468 255.994 97.8334C254.178 97.9199 254.178 100.084 255.994 99.9971Z" fill="black"/>
<path d="M265.3 89.8713C266.548 89.1789 268.024 89.0058 269.385 88.5731C270.861 88.1403 270.294 86.2362 268.705 86.669C267.116 87.1018 265.413 87.3614 263.938 88.0538C262.349 88.8328 263.825 90.6503 265.3 89.8713Z" fill="black"/>
<path d="M279.826 90.8232C279.486 90.8232 279.259 90.7367 278.919 90.7367C279.146 91.4291 279.373 92.1215 279.6 92.7273C280.167 92.4677 280.961 92.2945 281.642 92.1214C283.231 91.6887 282.664 89.8712 280.961 90.2174C279.826 90.3905 278.805 90.3905 277.897 91.0829C277.103 91.6887 277.557 93.0735 278.919 92.9004C279.259 92.9004 279.486 92.8139 279.826 92.8139C281.529 92.7273 281.529 90.9963 279.826 90.8232Z" fill="black"/>
<path d="M294.012 32.2302C288.565 36.7308 285.047 43.1355 282.21 48.8477C279.486 54.3004 275.627 63.7343 277.784 69.4466C278.465 71.1776 281.869 71.6104 283.004 69.9659C286.749 64.7729 290.154 59.1472 292.764 53.608C295.488 47.9822 297.53 41.5776 300.708 36.125C302.41 33.0092 297.53 29.3741 294.012 32.2302Z" fill="black"/>
<path d="M276.195 78.1001C276.309 78.1001 276.422 78.1866 276.536 78.1866C279.146 79.3118 282.551 77.927 282.551 75.5902C282.551 73.2533 279.146 71.8685 276.536 72.9937C276.422 72.9937 276.309 73.0802 276.195 73.0802C273.812 74.1188 273.812 76.975 276.195 78.1001Z" fill="black"/>
<path d="M133.158 199.004C134.793 197.067 136.46 195.13 137.571 192.894C138.454 191.136 138.781 189.407 138.552 187.47C138.454 185.622 138.323 183.774 138.127 181.955C137.898 179.929 137.015 178.081 135.937 176.322C134.4 173.997 132.962 171.583 131.524 169.139L129.006 166.725V166.903C128.68 168.543 128.451 170.301 128.222 171.941C127.666 176.292 126.032 180.465 124.168 184.549C123.188 186.575 122.174 188.721 120.769 190.569C119.232 192.417 117.369 193.49 115.048 194.355H115.146" fill="white"/>
<path d="M133.746 199.512C136.034 196.83 138.388 194.058 139.205 190.69C139.598 189.08 139.369 187.441 139.271 185.802C139.14 183.954 139.075 182.076 138.617 180.258C137.8 176.83 135.185 173.76 133.354 170.72C132.733 169.677 132.242 168.782 131.36 167.948C130.771 167.381 130.15 166.815 129.562 166.219C129.072 165.742 128.156 166.1 128.156 166.756C128.156 167.739 127.829 168.753 127.699 169.736C127.502 171.137 127.339 172.538 127.077 173.939C126.554 176.651 125.574 179.244 124.495 181.808C123.416 184.371 122.239 186.964 120.67 189.319C119.265 191.465 117.074 192.746 114.623 193.7C113.838 193.998 114.296 195.101 115.048 195.101C115.08 195.101 115.113 195.101 115.146 195.101C116.192 195.101 116.192 193.611 115.146 193.611C115.113 193.611 115.08 193.611 115.048 193.611C115.178 194.088 115.309 194.535 115.473 195.012C117.794 194.117 119.788 192.925 121.357 191.107C123.22 188.991 124.331 186.219 125.443 183.745C126.751 180.854 127.862 177.933 128.581 174.863C128.908 173.551 129.072 172.21 129.235 170.869C129.398 169.527 129.856 168.097 129.856 166.756C129.398 166.934 128.941 167.113 128.45 167.292C129.529 168.335 130.673 169.259 131.425 170.511C133.125 173.402 135.283 176.204 136.59 179.244C137.277 180.824 137.407 182.493 137.538 184.162C137.669 185.772 137.832 187.411 137.832 189.021C137.767 192.627 134.923 195.787 132.635 198.469C131.948 199.214 133.092 200.287 133.746 199.512Z" fill="black"/>
<path d="M81.2792 194.744C79.9389 192.806 78.9582 190.839 78.5006 188.574C77.1603 182.523 78.0429 176.145 79.4813 170.303L81.0504 166.994L79.3505 167.59C75.6892 168.663 72.3876 170.183 69.6089 172.777C67.2879 175.042 65.3919 177.635 63.8555 180.347C62.9729 182.076 62.3191 183.805 61.9595 185.742C61.3057 190.928 62.5152 195.906 64.6074 200.645" fill="white"/>
<path d="M81.9655 194.386C78.6311 189.408 78.3042 183.685 78.8926 177.992C79.0234 176.562 79.2849 175.161 79.5464 173.76C79.7425 172.717 79.8406 171.435 80.2983 170.481C80.7886 169.468 81.279 168.425 81.7693 167.411C82.0308 166.904 81.6059 166.04 80.854 166.308C78.1407 167.262 75.3948 168.097 72.8777 169.498C69.3145 171.495 66.6993 174.594 64.5418 177.784C62.2862 181.122 61.0766 184.639 61.0113 188.544C60.9459 192.776 62.1881 196.979 63.888 200.883C64.2802 201.777 65.8494 201.39 65.4571 200.496C63.9207 197.008 62.8746 193.402 62.6784 189.646C62.4496 185.593 63.7245 182.016 65.9801 178.559C67.9742 175.518 70.4259 172.717 73.7276 170.809C76.0813 169.438 78.7292 168.693 81.3117 167.769C81.0174 167.411 80.6906 167.053 80.3963 166.666C79.8733 167.739 79.383 168.812 78.8599 169.855C78.4349 170.749 78.3369 171.852 78.1081 172.836C77.7812 174.356 77.5523 175.906 77.3562 177.456C76.5716 183.536 77.0293 189.825 80.5925 195.16C81.1155 195.935 82.5212 195.19 81.9655 194.386Z" fill="black"/>
<path d="M83.4689 313.281C79.35 315.189 75.1003 317.484 73.3351 321.687C71.5698 325.77 72.9101 329.973 74.2177 333.907C75.5253 337.842 76.8656 341.925 77.5848 346.128C78.3039 350.33 77.454 354.145 73.76 356.977C70.393 359.421 66.4375 361.06 62.6128 362.819L58.3631 364.846C55.5845 365.651 52.9366 366.217 49.9945 365.919C43.6854 365.502 36.0686 361.448 36.4936 354.801C37.082 346.932 47.9023 345.174 54.5057 343.952L58.9515 342.998C60.4226 342.313 61.8936 341.627 62.907 340.286C63.9204 338.944 64.378 337.305 64.5088 335.666C64.803 333.222 64.9338 330.658 64.2146 328.333C63.332 326.038 62.907 323.714 62.3186 321.269C61.5994 318.557 60.5533 315.964 60.4226 313.132C60.1284 310.271 60.5533 307.44 61.3052 304.578" fill="#F2F2F2"/>
<path d="M117.369 316.084C119.003 317.008 120.67 317.932 122.174 319.124C124.103 320.585 125.508 322.224 126.293 324.37C127.176 326.755 127.176 328.692 126.849 330.808C126.587 332.626 125.476 334.802 125.083 336.322C124.135 340.078 123.972 342.91 124.364 346.755C124.626 349.556 124.92 352.209 125.607 354.862C126.293 357.246 127.404 359.631 129.039 361.508C130.412 363.237 132.341 364.042 134.531 364.31L138.65 364.578C143.324 364.042 147.836 363.655 152.51 362.999C155.125 362.611 157.741 361.926 159.637 359.959C161.827 357.962 162.513 355.041 161.827 352.269C161.01 349.228 158.493 347.351 155.877 345.622L154.014 345.145C152.085 344.34 150.157 344.31 147.966 344.43C145.22 344.698 142.605 345.503 139.99 346.009C138.192 346.397 135.61 346.814 134.76 344.936C133.648 343.088 134.139 340.346 134.564 338.379C135.675 334.147 136.492 330.004 136.885 325.652C137.309 321.926 136.721 318.26 135.512 314.504C135.512 314.504 132.144 308.871 130.575 308.871" fill="#F2F2F2"/>
<path d="M104.26 189.051C111.942 189.796 119.82 190.392 127.012 193.254C133.713 195.936 138.977 200.586 142.572 206.577C146.332 213.015 148.13 220.675 149.11 228.007C150.255 235.042 150.026 242.255 150.581 249.289C151.072 255.578 151.072 260.526 151.072 266.666V270.421C151.072 273.73 150.418 276.859 149.764 280.019C148.293 286.904 147.149 294.266 144.37 300.853C142.082 306.248 137.832 311.792 132.406 314.802L128.973 316.442C124.07 318.081 118.97 318.528 113.74 319.75C110.144 320.495 106.385 321.091 102.593 321.091C99.9775 321.241 97.5258 320.942 94.9106 321.241C90.8243 321.539 86.9015 320.644 82.7826 320.197C80.3309 320.048 77.5522 319.899 75.1005 319.452C72.9757 319.005 69.7067 317.962 68.0722 316.77L65.2935 315.13C62.5149 313.342 59.8997 311.375 57.9383 308.841C55.9769 305.98 54.6693 302.701 53.6886 299.393C52.381 295.19 51.2369 290.987 49.9293 286.666C48.7852 282.761 48.1314 278.886 47.1507 274.833C46.17 271.077 46.0065 267.649 46.17 263.745C46.4969 257.307 46.9872 250.869 47.1507 244.401V239.9C47.1507 239.9 47.1507 240.198 47.4776 239.9C47.8045 230.6 48.4583 220.735 52.7079 211.733C57.6114 201.242 67.4511 194.952 79.2521 191.942C86.117 190.452 93.3414 189.856 100.533 188.932L104.26 189.051Z" fill="#E9E2D8"/>
<path d="M145.351 273.134C147.476 274.624 149.764 275.816 152.216 276.591C155.321 277.337 158.427 276.889 161.565 277.038C166.305 277.187 171.438 277.217 175.589 274.416L179.12 271.942C182.552 268.931 185.821 265.951 188.796 262.493C194.19 255.906 198.309 248.246 200.27 240.168C201.087 236.413 201.741 231.763 199.943 228.037C198.472 224.878 195.792 224.192 192.326 223.447C192.326 223.447 189.417 223.954 188.306 225.355C185.396 228.961 182.748 232.538 180.623 236.592C177.191 243.03 174.903 250.69 167.842 255.012C164.9 256.8 161.467 257.873 157.839 257.873C154.406 257.724 151.464 256.681 148.326 255.638" fill="#F2F2F2"/>
<path d="M61.6649 276.441C55.2903 275.249 49.21 273.58 42.9989 271.643C37.6051 269.854 32.1786 268.036 26.6213 266.546C21.3909 265.205 16.7817 263.237 12.6954 259.959C6.6478 255.309 1.05783 248.871 -1.39391 241.986C-2.37461 238.826 -1.91695 235.816 -1.72081 232.537C-1.49198 229.08 -0.184385 226.397 2.69232 224.907C2.69232 224.907 5.69979 224.519 7.69388 225.384C11.4859 227.023 14.003 229.408 16.4548 232.716C18.7431 235.726 20.3775 239.303 22.3389 242.463C24.4638 245.771 27.2424 248.603 30.871 250.54C34.14 252.328 38.2262 253.223 42.0182 252.626C45.2872 252.179 47.9024 250.54 50.3542 248.573" fill="#F2F2F2"/>
<path d="M90.5626 217.187C92.099 217.872 93.7335 218.677 94.8123 219.989C96.0218 221.389 96.5448 223.088 96.7737 224.787C97.3294 228.185 96.4468 231.494 95.0411 234.683L93.5047 237.693C92.099 239.78 90.6607 241.598 88.4704 243.088C87.3917 243.893 86.1822 244.4 84.9726 244.877C83.8939 245.383 82.7824 245.771 81.4748 245.681L78.5327 245.175C75.4599 243.088 72.7466 240.883 71.5371 237.485C70.4583 234.474 70.4583 230.898 71.5371 227.887C72.0928 226.278 72.9428 224.698 73.7273 223.178L75.133 221.091C76.3425 219.005 78.402 217.187 80.6903 216.084C83.3055 214.773 85.9206 215.488 88.4378 216.591L90.5626 217.187Z" fill="white"/>
<path d="M128.875 222.88C126.914 219.184 124.495 215.577 119.918 214.385C118.055 213.878 115.996 213.878 114.034 214.475C112.302 215.16 110.863 216.263 109.458 217.366L107.823 218.856C105.862 221.062 104.652 223.565 104.554 226.546C104.554 229.556 105.535 232.448 106.418 235.249L108.183 237.783C108.608 238.468 109.752 239.243 110.504 239.72C111.256 240.227 111.615 240.614 112.4 241.032C113.282 241.479 113.936 242.045 114.786 242.224C115.669 242.313 116.355 242.433 117.238 242.522L121.128 242.015C127.47 239.214 129.627 232.925 129.987 226.934L128.875 222.88Z" fill="white"/>
<path d="M79.8403 296.681C80.4941 293.67 80.9191 290.69 81.5729 287.798C81.8998 286.189 82.2267 284.609 82.8805 283.208C83.2074 282.404 83.7631 281.301 84.8419 281.301C85.8226 281.39 86.7052 282.493 87.2282 283.208C88.1109 284.401 88.6339 285.801 89.1896 287.113C90.0723 289.021 90.4972 291.018 90.8241 293.015C91.2491 295.101 91.9029 297.217 92.5567 299.304" fill="white"/>
<path d="M109.654 296.205C110.21 294.416 110.733 292.598 111.19 290.72C111.746 288.425 112.269 285.921 113.25 283.716C113.805 282.524 114.884 280.616 116.519 281.421C118.251 282.226 119.232 284.521 119.788 286.13C120.67 288.425 121.193 290.72 121.52 293.135" fill="white"/>
<path d="M62.1874 287.677C65.7179 292.804 70.9155 296.232 77.0286 298.527C80.5591 299.838 84.253 300.852 88.0123 301.388C91.7717 301.925 95.8579 301.567 99.6499 301.329C101.775 301.18 103.9 300.434 105.959 300.017C109.915 299.153 113.837 297.931 117.629 296.619C121.127 295.397 124.233 293.877 126.75 291.314C129.398 288.601 131.424 285.412 133.876 282.521C134.824 281.388 133.124 279.809 132.144 280.941C130.084 283.356 128.188 285.889 126.194 288.363C123.938 291.195 121.062 292.953 117.531 294.265C111.974 296.291 106.188 297.364 100.533 299.034C99.0615 299.451 97.0674 299.242 95.531 299.272C93.7331 299.302 91.9351 299.481 90.1372 299.391C86.4759 299.242 82.7493 298.11 79.3168 296.977C73.2038 294.95 67.7773 291.671 64.2795 286.575C63.4949 285.323 61.3701 286.426 62.1874 287.677Z" fill="black"/>
<path d="M93.668 193.849C91.3797 188.752 78.271 198.946 81.2131 206.129C82.5207 202.522 86.4435 200.436 90.399 199.84C81.54 203.148 94.6487 210.629 97.5907 212.12C94.6487 207.619 95.9563 203.416 96.9369 198.647C96.9369 201.33 99.879 204.042 102.494 204.638C101.84 202.254 101.187 199.542 101.187 196.859C105.436 196.561 104.783 200.764 107.071 201.36C109.686 202.254 110.667 200.764 109.686 197.455C108.705 192.955 101.84 189.05 97.5581 192.06" fill="#191713"/>
<path d="M197.164 238.797C199.452 246.874 196.837 254.982 198.472 262.761C199.452 267.56 199.779 270.242 199.126 275.041C198.145 282.82 201.414 278.349 205.01 281.926C208.606 285.831 203.604 297.694 202.296 301.3L202.166 301.598C201.97 302.135 201.904 302.641 201.937 303.178C202.166 306.606 206.644 310.033 204.356 314.176C202.623 317.366 194.32 317.962 193.013 313.968L192.261 311.881C191.934 308.573 192.261 307.977 190.299 305.592C188.992 304.4 186.703 305.294 186.05 302.284C185.396 298.379 188.665 299.899 190.299 298.081C192.261 295.995 192.261 295.697 192.588 292.686C193.241 283.089 192.914 273.819 194.549 264.221C195.203 261.211 195.857 237.247 188.011 241.45" fill="#EEE5C3"/>
<path d="M3.9343 245.086C6.54949 246.874 9.16468 264.251 8.51088 268.156C7.85708 272.358 2.2998 274.743 2.2998 278.946C2.2998 282.463 6.90908 285.175 8.83778 287.917C10.5703 290.421 11.9433 294.117 11.1588 297.038C10.5376 299.243 10.1781 301.181 12.2048 303.088C13.9701 304.758 17.3045 305.443 18.8736 303.476C20.835 301.002 18.3505 299.124 18.612 296.65L18.7101 294.862C17.7294 287.977 12.8259 281.39 12.499 273.879C12.1721 268.484 16.0949 259.184 18.7101 254.385" fill="#EEE5C3"/>
<path d="M86.2476 235.608C91.1403 235.608 95.1066 231.965 95.1066 227.471C95.1066 222.977 91.1403 219.334 86.2476 219.334C81.355 219.334 77.3887 222.977 77.3887 227.471C77.3887 231.965 81.355 235.608 86.2476 235.608Z" fill="black"/>
<path d="M83.5671 226.994C85.1739 226.994 86.4765 225.926 86.4765 224.609C86.4765 223.292 85.1739 222.225 83.5671 222.225C81.9603 222.225 80.6577 223.292 80.6577 224.609C80.6577 225.926 81.9603 226.994 83.5671 226.994Z" fill="white"/>
<path d="M115.063 235.626C119.955 235.626 123.922 231.983 123.922 227.489C123.922 222.995 119.955 219.352 115.063 219.352C110.17 219.352 106.204 222.995 106.204 227.489C106.204 231.983 110.17 235.626 115.063 235.626Z" fill="black"/>
<path d="M113.036 228.294C114.643 228.294 115.945 227.227 115.945 225.91C115.945 224.593 114.643 223.525 113.036 223.525C111.429 223.525 110.126 224.593 110.126 225.91C110.126 227.227 111.429 228.294 113.036 228.294Z" fill="white"/>
<path d="M244.031 318.435C240.984 320.251 238.022 322.244 236.245 325.344C234.172 328.975 235.187 333.05 236.711 336.593C238.445 340.623 240.646 344.609 241.534 348.905C241.873 350.588 241.746 352.271 241.026 353.821C240.138 355.858 238.149 357.187 236.372 358.382C233.791 360.154 230.956 361.615 228.29 363.254C225.498 364.937 222.451 365.823 219.151 365.867C215.977 365.911 212.634 364.893 210.307 362.811C208.065 360.818 207.811 357.585 209.588 355.194C211.873 352.138 216.231 350.853 219.701 349.746C222.536 348.86 225.582 348.285 228.079 346.557C232.775 343.324 231.464 336.283 229.56 332.031C228.417 329.374 227.444 326.628 226.428 323.927C225.244 320.826 225.201 317.549 225.709 314.272C225.921 312.899 223.763 312.589 223.551 313.918C222.874 318.213 223.255 322.155 224.947 326.141C225.751 328.045 226.429 329.994 227.148 331.898C227.529 332.873 227.994 333.758 228.375 334.733C228.883 335.928 228.925 337.257 229.01 338.541C229.094 340.712 229.01 343.014 227.19 344.565C226.217 345.406 225.201 345.805 223.974 346.203C221.859 346.867 219.743 347.488 217.627 348.196C212.804 349.79 206.499 352.581 206.245 358.338C205.949 364.76 213.184 367.816 218.727 367.993C221.816 368.081 224.736 367.328 227.613 366.177C228.883 365.69 230.067 364.715 231.21 364.007C235.907 361.172 242.127 358.604 243.692 352.935C244.411 350.278 243.565 347.576 242.761 345.096C241.619 341.73 240.011 338.586 238.615 335.353C237.261 332.208 236.71 329.02 238.488 325.875C239.969 323.306 242.888 321.624 245.385 320.162C246.569 319.453 245.258 317.726 244.031 318.435Z" fill="black"/>
<path d="M273.777 317.105C277.712 318.744 281.69 320.604 282.536 325.121C282.917 327.026 282.494 328.841 281.986 330.657C281.436 332.606 281.267 334.554 281.267 336.547C281.267 338.585 281.69 340.533 282.07 342.482C282.536 344.652 283.001 346.822 283.89 348.859C285.286 352.137 287.698 355.192 291.379 355.99C293.199 356.388 295.738 356.255 297.557 355.857C301.873 354.882 306.316 354.174 310.59 352.845C314.017 351.782 316.894 349.302 317.529 345.715C318.164 342.128 315.921 339.205 313.001 337.433C312.282 336.99 311.309 336.282 310.463 336.149C309.743 336.06 309.066 335.972 308.389 335.795C305.766 335.13 302.804 335.883 300.265 336.68C298.869 337.123 297.515 337.61 296.118 338.053C295.23 338.319 293.834 338.895 292.987 338.319C291.929 337.61 292.056 335.573 292.099 334.466C292.183 333.004 292.479 331.587 292.649 330.17C293.03 327.291 293.157 324.413 293.157 321.534C293.157 318.434 292.183 315.334 290.956 312.499C290.533 311.525 289.475 310.595 288.756 309.842C287.783 308.823 286.598 307.539 285.075 307.539C283.678 307.539 283.89 309.665 285.286 309.665C285.667 309.665 286.979 311.082 287.402 311.525C287.994 312.145 288.544 312.809 289.052 313.474C289.602 314.182 289.814 315.467 290.11 316.308C290.448 317.371 290.702 318.522 290.872 319.63C291.21 321.933 291.041 324.368 290.872 326.671C290.618 330.347 289.264 334.377 290.364 337.965C291.379 341.375 294.807 340.71 297.472 339.825C299.63 339.116 301.746 338.23 303.989 337.876C305.808 337.566 307.416 337.832 309.193 338.053C312.621 338.54 315.752 341.818 315.413 345.272C314.905 349.922 309.236 350.985 305.512 351.827C302.127 352.624 298.657 353.642 295.145 353.82C294.003 353.864 292.903 353.952 291.76 353.775C289.391 353.377 287.825 351.339 286.683 349.479C285.329 347.265 284.779 344.652 284.271 342.128C283.763 339.78 283.382 337.433 283.467 335.042C283.594 332.783 284.313 330.746 284.736 328.576C285.117 326.627 284.821 324.545 284.186 322.685C282.705 318.567 278.559 316.618 274.708 315.024C273.396 314.625 272.508 316.574 273.777 317.105Z" fill="black"/>
<path d="M252.07 210.241C258.84 210.152 265.737 209.887 272.254 211.614C278.347 213.252 283.297 216.663 286.936 221.357C290.744 226.45 292.987 232.695 294.468 238.806C296.076 244.652 296.499 250.72 297.557 256.61C298.53 261.88 298.953 266.043 299.461 271.225L299.8 274.369C300.096 277.159 299.757 279.861 299.461 282.607C298.742 288.541 298.403 294.874 296.499 300.676C294.976 305.459 291.718 310.552 287.275 313.564L284.397 315.291C280.251 317.151 275.85 318.037 271.407 319.543C268.319 320.517 265.103 321.403 261.802 321.757C259.517 322.156 257.359 322.111 255.117 322.643C251.563 323.307 248.093 322.909 244.454 322.909C242.296 322.997 239.842 323.174 237.684 322.997C235.78 322.82 232.86 322.244 231.337 321.403L228.756 320.296C226.175 319.056 223.721 317.638 221.817 315.69C219.87 313.475 218.432 310.818 217.289 308.116C215.808 304.706 214.454 301.252 212.931 297.753C211.619 294.564 210.688 291.331 209.503 288.054C208.319 284.998 207.896 282.075 207.726 278.798C207.472 273.351 207.345 267.859 206.965 262.412L206.584 258.603C206.584 258.603 206.626 258.869 206.88 258.559C206.372 250.675 206.118 242.305 209.038 234.289C212.423 224.989 220.463 218.7 230.491 215.068C236.372 213.164 242.592 211.968 248.77 210.507L252.07 210.241Z" fill="#576D80"/>
<path d="M295.23 279.507C297.219 280.57 299.292 281.367 301.535 281.766C304.327 282.12 306.993 281.411 309.701 281.234C313.848 280.924 318.333 280.437 321.676 277.691L324.511 275.255C327.261 272.377 329.842 269.542 332.127 266.354C336.274 260.286 339.193 253.422 340.209 246.424C340.59 243.191 340.801 239.205 338.897 236.238C337.331 233.714 334.962 233.404 331.873 233.094C331.873 233.094 329.377 233.802 328.53 235.087C326.288 238.408 324.299 241.686 322.776 245.317C320.322 251.074 318.968 257.762 313.213 262.102C310.801 263.918 307.882 265.114 304.75 265.468C301.746 265.689 299.08 265.069 296.288 264.494" fill="#576D80"/>
<path d="M222.578 290.313C216.908 289.914 211.492 289.117 205.907 288.054C201.041 287.036 196.175 286.061 191.182 285.308C186.485 284.688 182.339 283.448 178.488 281.101C172.818 277.78 167.402 272.864 164.694 267.283C163.552 264.715 163.721 262.146 163.594 259.356C163.509 256.433 164.398 254.041 166.81 252.491C166.81 252.491 169.391 251.871 171.21 252.403C174.638 253.421 177.049 255.193 179.461 257.762C181.704 260.064 183.439 262.943 185.427 265.423C187.543 267.992 190.251 270.118 193.551 271.446C196.556 272.642 200.195 272.996 203.453 272.155C206.288 271.446 208.403 269.808 210.392 267.948" fill="#576D80"/>
<path d="M242.508 235.261C243.904 235.704 245.385 236.236 246.443 237.21C247.628 238.273 248.22 239.646 248.558 241.063C249.32 243.897 248.855 246.732 247.881 249.566L246.824 252.224C245.766 254.128 244.666 255.767 242.889 257.272C242 258.07 240.984 258.601 240.011 259.132C239.123 259.664 238.192 260.107 237.049 260.151L234.426 260.018C231.591 258.557 229.01 256.962 227.698 254.217C226.513 251.781 226.175 248.769 226.894 246.112C227.233 244.695 227.867 243.277 228.418 241.949L229.475 240.044C230.364 238.14 232.014 236.457 233.918 235.306C236.076 233.977 238.446 234.287 240.731 234.996L242.508 235.261Z" fill="white"/>
<path d="M276.401 236.416C274.369 233.493 271.958 230.702 267.896 230.127C266.245 229.905 264.426 230.082 262.776 230.791C261.295 231.544 260.152 232.607 259.01 233.67L257.698 235.087C256.175 237.124 255.329 239.339 255.498 241.907C255.752 244.432 256.852 246.779 257.867 249.082L259.602 251.03C260.025 251.562 261.083 252.093 261.803 252.448C262.522 252.802 262.86 253.112 263.58 253.378C264.384 253.688 264.976 254.086 265.78 254.175C266.542 254.175 267.176 254.175 267.938 254.175L271.281 253.378C276.57 250.41 277.924 244.874 277.712 239.826L276.401 236.416Z" fill="white"/>
<path d="M241.111 238.717C240.265 240.887 239.926 243.19 240.603 245.714C241.238 248.106 242.677 250.187 244.454 249.036C247.67 247.176 248.685 240.09 245.3 237.3C243.1 235.661 242.084 238.806 241.196 240.931" fill="#161511"/>
<path d="M257.952 236.016C256.64 237.477 256.175 239.47 256.556 242.039C256.894 244.43 258.121 247.752 260.025 247.84C263.072 248.017 264.087 240.71 262.776 237.433C261.633 234.776 259.475 236.636 258.079 237.477" fill="#161511"/>
<path d="M239.926 303.378C240.222 300.765 240.349 298.196 240.688 295.716C240.857 294.343 240.984 292.971 241.449 291.73C241.661 291.022 242.042 290.048 243.015 289.959C243.861 289.959 244.75 290.8 245.258 291.332C246.104 292.262 246.696 293.369 247.289 294.432C248.22 295.938 248.77 297.576 249.235 299.259C249.785 300.987 250.547 302.714 251.308 304.397" fill="white"/>
<path d="M265.865 300.1C266.203 298.55 266.499 296.956 266.711 295.317C267.007 293.324 267.261 291.154 267.938 289.206C268.319 288.143 269.123 286.415 270.604 286.947C272.212 287.434 273.227 289.294 273.862 290.578C274.835 292.439 275.47 294.299 275.978 296.292" fill="white"/>
<path d="M278.939 216.529C280.674 214.093 282.451 211.569 283.001 208.602C283.297 207.052 282.917 205.457 282.663 203.951C282.409 202.357 282.155 200.763 281.605 199.257C280.505 196.334 277.924 193.943 276.062 191.507C275.004 190.089 273.862 189.248 272.465 188.229C271.704 187.654 270.603 188.229 270.688 189.204C270.773 190.001 270.561 190.931 270.519 191.772C270.477 192.968 270.434 194.208 270.307 195.404C270.053 197.707 269.461 199.966 268.742 202.136C268.065 204.217 267.303 206.254 266.33 208.203C265.314 210.285 263.579 211.658 261.506 212.676C260.448 213.208 260.702 214.891 262.014 214.713C262.056 214.713 262.098 214.713 262.098 214.713C263.495 214.581 263.283 212.41 261.887 212.588C261.845 212.588 261.802 212.588 261.802 212.588C261.972 213.252 262.141 213.96 262.31 214.625C264.172 213.695 265.864 212.543 267.176 210.905C268.742 208.912 269.588 206.254 270.392 203.951C271.28 201.427 272 198.858 272.381 196.201C272.592 194.828 272.592 193.455 272.677 192.038C272.719 191.02 272.973 189.912 272.846 188.894C272.254 189.204 271.661 189.514 271.069 189.868C271.915 190.488 272.973 191.064 273.608 191.905C275.427 194.297 277.712 196.555 279.151 199.213C279.828 200.453 280.039 201.826 280.293 203.154C280.547 204.483 280.843 205.812 280.928 207.14C281.139 210.063 278.897 212.898 277.247 215.156C276.443 216.308 278.135 217.681 278.939 216.529Z" fill="black"/>
<path d="M233.41 216.618C230.194 212.898 229.433 208.247 229.433 203.42C229.433 202.136 229.56 200.807 229.687 199.523C229.771 198.726 229.729 197.751 230.025 196.998C230.363 196.113 230.702 195.183 231.041 194.297C231.337 193.5 230.617 192.437 229.644 192.88C227.402 193.943 225.117 194.873 223.043 196.29C220.124 198.238 218.05 201.117 216.358 204.129C214.538 207.317 213.692 210.639 214.031 214.315C214.369 217.991 215.892 221.401 217.712 224.545C218.389 225.741 220.166 224.457 219.489 223.261C217.839 220.426 216.612 217.371 216.231 214.093C215.808 210.639 216.908 207.583 218.6 204.572C220.124 201.87 222.112 199.523 224.736 197.796C226.513 196.6 228.544 195.847 230.448 194.917C229.983 194.43 229.517 193.987 229.052 193.5C228.713 194.43 228.332 195.404 227.994 196.334C227.232 198.371 227.359 201.073 227.275 203.199C227.105 208.513 228.163 213.828 231.675 217.946C232.521 218.921 234.299 217.681 233.41 216.618Z" fill="black"/>
<path d="M223.763 297.531C227.402 301.694 232.31 304.041 237.726 305.325C240.984 306.123 244.369 306.654 247.754 306.654C251.182 306.698 254.736 306.034 258.079 305.414C258.84 305.281 259.475 305.015 260.152 304.705C261.252 304.262 262.395 303.952 263.495 303.598C266.711 302.535 269.8 301.207 272.888 299.789C275.723 298.505 278.22 296.955 280.251 294.608C282.409 292.083 283.932 289.027 285.878 286.326C286.682 285.174 284.99 283.846 284.186 284.997C282.451 287.433 280.928 290.046 279.151 292.526C277.331 295.051 274.877 296.556 272.084 297.841C267.557 299.967 262.86 301.384 258.248 303.2C257.148 303.642 255.752 303.642 254.567 303.82C252.917 304.041 251.266 304.351 249.659 304.484C246.527 304.794 243.312 304.262 240.265 303.687C234.68 302.624 229.306 300.542 225.54 296.246C224.609 295.228 222.832 296.468 223.763 297.531Z" fill="black"/>
<path d="M243.227 215.29C240.815 211.216 230.237 221.047 233.41 226.849C234.257 223.705 237.515 221.535 240.858 220.649C233.41 224.28 245.47 229.329 248.178 230.304C245.216 226.805 246.02 223.129 246.443 219.01C246.654 221.269 249.489 223.262 251.817 223.528C251.055 221.579 250.251 219.364 249.997 217.062C253.678 216.397 253.467 219.985 255.498 220.295C257.867 220.782 258.587 219.453 257.444 216.752C256.217 213.076 249.87 210.418 246.443 213.386" fill="#191713"/>
<path d="M347.571 296.027C348.925 291.022 353.749 277.47 344.609 277.16C344.186 277.16 343.467 277.249 343.128 276.895C342.494 276.142 342.705 274.503 342.747 273.617C342.79 270.517 342.451 267.638 341.563 264.671C340.505 261.084 339.997 257.629 339.786 253.865C339.574 250.145 339.236 246.513 337.882 243.014C337.543 242.173 336.189 242.704 336.528 243.546C339.109 250.145 337.755 257.452 339.87 264.184C340.801 267.151 341.351 270.074 341.309 273.219C341.266 274.68 340.928 277.382 342.578 278.267C343.636 278.843 345.032 278.445 346.175 278.887C348.248 279.64 348.502 281.81 348.544 283.715C348.587 287.789 347.233 291.864 346.175 295.805C345.921 296.691 347.36 296.913 347.571 296.027Z" fill="#191713"/>
<path d="M169.052 267.814C169.56 268.124 169.898 268.921 170.152 269.408C170.702 270.427 171.126 271.534 171.506 272.641C172.437 275.21 173.157 277.867 173.749 280.524C174.172 282.384 174.722 284.466 174.511 286.415C174.214 289.293 171.168 291.286 170.237 293.988C169.306 296.822 171.295 298.948 173.368 300.587C176.245 302.89 178.996 305.192 179.334 309.134C179.461 310.64 178.7 312.101 179.25 313.607C179.757 315.069 180.942 316.043 182.381 316.619C184.92 317.637 188.262 316.574 188.474 313.563C188.559 311.968 187.247 310.728 187.162 309.178C187.078 308.115 187.035 307.274 186.697 306.211C185.427 302.314 182.973 298.904 181.323 295.183C179.715 291.508 179.588 288.053 180.35 284.156C181.027 280.613 182.212 277.158 183.65 273.837C184.031 272.995 182.677 272.42 182.339 273.261C181.069 276.184 180.096 279.196 179.292 282.296C178.53 285.352 178.065 288.496 178.657 291.596C179.377 295.272 181.408 298.594 183.143 301.871C183.989 303.465 184.793 305.06 185.343 306.743C185.724 307.85 185.597 308.957 185.808 310.108C186.147 311.791 187.797 313.12 186.485 314.847C185.131 316.619 182.085 315.201 181.069 313.961C179.969 312.633 180.858 310.551 180.815 309.045C180.773 307.318 179.969 305.635 179.08 304.174C177.388 301.384 174.299 300.099 172.268 297.619C169.983 294.829 173.326 291.862 174.807 289.515C177.134 285.883 175.442 281.189 174.468 277.424C173.834 274.988 173.072 272.597 172.141 270.294C171.591 269.01 170.956 267.327 169.645 266.574C168.883 265.998 168.248 267.327 169.052 267.814Z" fill="#191713"/>
<path d="M346.217 295.715C345.625 298.328 347.783 300.277 348.925 302.402C349.602 303.643 349.856 305.193 348.967 306.388C348.206 307.407 346.767 307.938 345.54 308.204C344.355 308.47 343.044 308.47 341.901 308.027C340.801 307.628 340.463 306.521 339.997 305.591C339.489 304.617 339.532 303.377 339.193 302.314C338.855 301.34 337.924 300.011 336.951 299.568C335.808 299.081 334.369 299.347 333.735 298.107C332.804 296.335 334.2 296.069 335.512 295.494C337.628 294.519 338.474 292.083 338.516 290.002C338.643 285.529 338.051 281.012 337.839 276.583C337.628 272.597 337.712 268.7 337.881 264.758C338.051 260.949 336.697 241.108 329.08 245.936C328.276 246.423 329.123 247.574 329.927 247.087C335.131 243.81 336.57 261.879 336.443 264.669C336.273 268.567 336.189 272.375 336.4 276.229C336.612 280.746 337.162 285.307 337.12 289.825C337.12 291.242 336.866 292.128 336.02 293.324C335.258 294.342 334.158 294.475 333.1 295.095C330.984 296.291 332.338 299.612 334.116 300.365C334.666 300.587 335.3 300.631 335.85 300.72C336.739 300.897 337.458 301.871 337.797 302.668C338.389 303.953 338.305 305.37 338.939 306.654C339.447 307.628 339.87 308.603 340.886 309.134C342.197 309.843 343.678 309.931 345.159 309.754C348.037 309.444 350.914 307.761 351.041 304.705C351.125 303.2 350.364 301.871 349.56 300.631C348.629 299.214 347.275 297.797 347.698 295.981C347.867 295.006 346.429 294.829 346.217 295.715Z" fill="#191713"/>
<path d="M337.03 304.342C337.691 303.022 337.947 301.599 338.566 300.279C339.27 298.787 340.465 297.382 341.489 296.027C343.515 293.353 345.499 290.661 347.611 288.038C347.142 287.935 346.651 287.832 346.182 287.729C346.95 291.604 347.441 295.496 347.419 299.422C347.398 300.896 347.547 302.422 347.227 303.879C347.121 304.394 347.121 304.599 346.651 304.942C345.969 305.457 344.987 305.337 344.134 305.251C342.47 305.079 340.742 304.874 339.142 304.497C338.737 304.411 338.374 304.257 337.969 304.171C337.777 304.136 337.606 304.085 337.435 304.034C337.307 303.999 337.201 303.965 337.073 303.914C336.859 303.794 336.859 303.896 337.051 304.171C337.201 303.348 335.601 303.176 335.473 303.999C335.323 304.839 336.582 305.148 337.35 305.354C338.801 305.714 340.23 305.988 341.723 306.262C343.302 306.554 345.691 306.965 347.163 306.211C348.593 305.474 348.785 304.411 348.955 303.125C349.062 302.285 348.977 301.411 348.977 300.57C348.977 299.645 348.998 298.719 348.977 297.793C348.955 296.01 348.635 294.261 348.529 292.478C348.422 290.815 348.059 289.204 347.739 287.558C347.633 287.043 346.715 286.769 346.31 287.249C344.134 289.958 342.065 292.753 339.974 295.513C338.993 296.799 337.99 298.119 337.201 299.49C336.411 300.862 336.219 302.422 335.515 303.828C335.174 304.617 336.646 305.114 337.03 304.342Z" fill="black"/>
<path d="M318.854 346.005C318.747 347.959 318.662 349.948 317.936 351.817C317.083 354.011 315.206 355.468 312.56 356.308C311.216 356.737 309.787 357.011 308.422 357.303C307.483 357.508 306.523 357.68 305.755 358.194C303.92 359.412 306.16 361.04 307.504 361.657C311.856 363.612 318.79 365.309 322.246 361.315C323.867 359.446 324.208 356.857 324.592 354.645C325.083 351.851 325.659 349.091 326.726 346.399C327.024 345.61 325.552 345.113 325.254 345.902C324.358 348.182 323.739 350.514 323.291 352.879C322.886 355.091 322.651 357.371 321.648 359.48C319.408 364.161 312.112 362.36 308.102 360.44C307.547 360.183 306.096 359.446 307.12 358.983C307.909 358.64 308.891 358.52 309.723 358.314C312.176 357.766 314.63 357.251 316.592 355.88C320.048 353.497 320.283 349.536 320.454 346.159C320.475 345.353 318.896 345.182 318.854 346.005Z" fill="black"/>
<path d="M334.598 348.351C334.043 350.975 333.04 353.392 331.995 355.895C331.163 357.884 330.971 360.027 331.824 362.033C333.424 365.77 338.481 366.765 342.833 366.97C344.945 367.073 350.363 367.056 349.318 364.21C347.953 360.575 342.47 360.215 338.566 360.678C338.843 360.97 339.142 361.261 339.419 361.57C340.081 359.65 339.761 357.575 340.017 355.604C340.145 354.592 340.102 353.58 340.145 352.569C340.209 351.369 340.486 350.272 340.721 349.089C340.87 348.266 339.291 348.111 339.142 348.917C338.95 349.877 338.651 350.803 338.609 351.763C338.566 352.792 338.523 353.803 338.502 354.832C338.481 355.844 338.246 356.855 338.225 357.884C338.203 358.947 338.31 360.027 337.947 361.073C337.798 361.518 338.139 362.033 338.801 361.964C342.065 361.587 346.417 361.656 347.803 364.57C348.529 366.096 342.598 365.702 341.681 365.633C339.803 365.513 337.883 365.17 336.24 364.381C334.299 363.456 333.211 361.878 332.912 360.113C332.592 358.209 333.467 356.426 334.256 354.678C335.152 352.689 335.75 350.597 336.176 348.523C336.368 347.7 334.768 347.546 334.598 348.351Z" fill="black"/>
<path d="M353.606 349.312C356.166 346.569 358.257 343.689 360.326 340.568C361.329 338.837 362.054 337.054 362.929 335.185C364.017 332.888 365.382 330.71 366.726 328.55C367.878 326.716 368.945 324.641 369.542 322.738C370.609 319.738 372.06 316.892 373.404 314.029C374.214 312.297 373.212 310.789 373.212 310.789C372.87 309.828 372.593 308.817 371.953 307.943C371.249 307 370.289 306.262 369.244 305.697C367.046 304.599 364.507 303.931 362.118 303.211C360.625 302.713 359.067 302.148 357.489 301.633C354.417 300.622 351.025 300.382 347.782 299.988L344.347 299.456C340.23 299.147 336.262 298.839 332.315 298.53C325.382 297.913 317.637 297.107 311.173 299.765C308.101 301.05 305.755 303.108 304.752 305.782C303.429 308.645 303.643 311.766 303.728 314.783L304.389 316.926C305.008 319.292 305.456 321.761 305.776 324.213C305.968 325.618 306.032 327.007 306.245 328.413C306.459 329.699 306.395 330.968 306.352 332.219C306.565 334.431 306.48 336.728 306.544 338.923C306.757 341.134 307.419 343.277 308.059 345.42C308.229 346.003 309.744 347.615 309.744 347.615C312.368 349.346 312.901 349.364 314.992 349.192C316.187 349.123 317.339 349.226 318.661 349.329C320.88 349.346 323.141 350.032 325.296 350.529C326.448 350.786 327.558 351.215 328.71 351.472C330.011 351.747 331.312 351.849 332.635 351.952C334.96 352.141 337.307 352.33 339.504 352.347C341.574 352.347 343.472 352.501 345.35 352.655C346.673 352.758 348.529 353.084 349.83 352.192C349.83 352.261 352.966 349.998 353.606 349.312Z" fill="#04BFBF"/>
<path d="M326.982 319.429C327.515 317.475 328.155 315.349 330.032 313.875C332.081 312.297 334.811 312.246 337.478 312.229C337.478 312.229 338.566 311.989 339.675 312.349C341.851 313.035 344.049 313.669 345.435 315.263C346.161 316.138 346.865 317.081 347.27 318.058C347.675 319.087 347.654 320.064 347.483 321.127L346.523 323.098C345.457 324.418 344.433 325.876 342.897 326.87C341.275 327.967 339.249 328.156 337.243 328.173L334.299 327.693C332.251 327.47 330.502 326.836 329.136 325.533C327.771 324.178 327.323 322.515 327.11 320.818C327.131 320.818 326.918 319.704 326.982 319.429Z" fill="white"/>
<path d="M339.963 320.355C340.16 319.144 339.127 318.037 337.655 317.882C336.183 317.727 334.83 318.584 334.633 319.795C334.436 321.006 335.469 322.114 336.941 322.268C338.413 322.423 339.767 321.566 339.963 320.355Z" fill="#161511"/>
<path d="M306.928 320.373C303.813 322.379 300.891 324.402 298.331 326.905C295.749 329.494 292.997 332.563 291.93 335.82C291.738 336.403 291.333 337.569 292.336 337.946C293.232 338.392 294.768 337.603 295.578 337.158C299.419 335.306 302.768 332.631 306.075 330.214C308.421 328.38 310.768 326.562 313.2 324.831" fill="#04BFBF"/>
<path d="M361.926 331.515C361.948 331.429 361.948 331.429 361.948 331.344C363.676 334.55 365.532 337.687 367.964 340.619C368.945 341.853 369.948 342.985 371.292 343.91C371.953 344.408 373.02 345.128 373.937 344.802C374.833 344.631 374.982 343.705 374.982 343.002C375.068 341.802 374.833 340.653 374.47 339.487C373.617 336.795 372.209 334.241 370.908 331.669C369.35 328.738 368.006 325.737 366.876 322.686" fill="#04BFBF"/>
<path d="M327.579 338.923C328.411 337.414 329.2 335.854 329.883 334.328C330.203 333.677 330.459 333.042 330.8 332.391C331.014 332.065 331.248 331.568 331.654 331.396C332.528 330.933 333.019 332.614 333.104 333.025C333.489 334.362 333.446 335.837 333.296 337.191C333.147 338.477 332.785 339.643 332.379 340.86" fill="white"/>
<path d="M338.886 340.586C339.291 339.814 339.675 339.025 340.038 338.202C340.379 337.414 340.635 336.539 341.232 335.819C342.384 334.345 343.024 337.74 343.088 338.271C343.195 338.923 343.195 339.574 343.131 340.26" fill="white"/>
<path d="M332.806 340.604C333.275 339.695 333.702 338.752 334.107 337.843C334.598 336.849 335.024 335.786 335.92 334.963C336.176 334.774 336.475 334.552 336.838 334.62C337.2 334.706 337.414 335.066 337.52 335.34C338.054 336.386 338.118 337.569 338.16 338.649C338.224 339.609 338.118 340.501 338.032 341.444" fill="white"/>
<path d="M344.07 339.059C344.369 338.837 344.476 338.494 344.646 338.219C344.817 337.945 345.03 337.174 345.542 337.054C346.268 336.916 346.652 338.459 346.801 338.871" fill="white"/>
<path d="M320.347 334.208C321.861 336.351 323.504 338.357 326.086 339.78C328.582 341.169 331.547 341.769 334.555 341.855C340.806 342.043 346.907 340.106 352.219 337.62C353.094 337.208 352.497 336.026 351.601 336.437C346.715 338.734 341.403 340.414 335.686 340.586C332.784 340.672 329.862 340.157 327.387 338.923C324.869 337.671 323.269 335.734 321.84 333.711C321.307 333.008 319.835 333.488 320.347 334.208Z" fill="black"/>
<path d="M149.047 324.703C146.064 325.591 143.157 326.676 140.997 328.921C138.502 331.511 138.527 335.136 139.119 338.392C139.788 342.092 140.868 345.865 140.739 349.663C140.688 351.119 140.225 352.5 139.299 353.659C138.116 355.164 136.187 355.879 134.412 356.545C131.84 357.507 129.165 358.148 126.542 358.962C123.815 359.801 121.063 359.899 118.234 359.283C115.533 358.666 112.884 357.137 111.315 354.942C109.823 352.845 110.26 350.083 112.241 348.455C114.787 346.383 118.774 346.161 121.963 345.964C124.561 345.791 127.288 345.939 129.731 345.002C134.386 343.251 134.695 337.134 133.949 333.163C133.512 330.721 133.255 328.206 132.92 325.764C132.535 322.927 133.178 320.19 134.284 317.551C134.747 316.441 132.972 315.725 132.509 316.835C131.068 320.288 130.606 323.643 131.197 327.293C131.48 329.044 131.66 330.795 131.892 332.546C131.994 333.434 132.226 334.273 132.38 335.161C132.56 336.246 132.355 337.405 132.123 338.466C131.763 340.316 131.197 342.19 129.345 343.127C128.342 343.645 127.39 343.744 126.284 343.843C124.355 343.991 122.401 344.065 120.472 344.213C116.048 344.558 110.106 345.619 108.717 350.379C107.148 355.706 112.704 359.702 117.385 360.984C120.009 361.7 122.632 361.65 125.307 361.28C126.49 361.108 127.699 360.565 128.805 360.22C133.383 358.814 139.196 357.926 141.665 353.486C142.823 351.439 142.669 348.973 142.463 346.728C142.18 343.695 141.46 340.735 140.92 337.751C140.405 334.865 140.585 332.078 142.746 329.833C144.52 327.984 147.35 327.17 149.767 326.454C150.976 326.06 150.23 324.358 149.047 324.703Z" fill="black"/>
<path d="M174.613 329.635C177.623 331.781 180.606 334.149 180.452 338.095C180.375 339.748 179.655 341.178 178.857 342.584C178.009 344.088 177.443 345.692 177.031 347.369C176.62 349.046 176.568 350.772 176.517 352.499C176.465 354.398 176.44 356.322 176.748 358.172C177.263 361.181 178.729 364.264 181.687 365.645C183.153 366.336 185.339 366.755 186.985 366.78C190.869 366.854 194.804 367.15 198.688 366.903C201.8 366.706 204.784 365.226 206.044 362.365C207.304 359.504 205.993 356.618 203.884 354.546C203.369 354.028 202.675 353.239 201.98 352.968C201.414 352.746 200.823 352.548 200.257 352.252C198.148 351.167 195.499 351.192 193.184 351.34C191.923 351.414 190.663 351.562 189.377 351.66C188.58 351.71 187.268 351.882 186.676 351.241C185.956 350.476 186.419 348.799 186.676 347.961C187.037 346.703 187.628 345.494 188.091 344.286C189.017 341.869 189.789 339.378 190.329 336.862C190.843 334.395 190.637 331.781 190.2 329.315C190.046 328.402 189.326 327.44 188.863 326.651C188.245 325.59 187.499 324.308 186.188 323.987C184.979 323.691 184.747 325.541 185.93 325.812C186.265 325.886 187.062 327.317 187.345 327.81C187.705 328.451 188.04 329.117 188.348 329.783C188.657 330.474 188.605 331.608 188.657 332.348C188.734 333.335 188.708 334.297 188.605 335.259C188.425 337.33 187.731 339.378 187.088 341.326C186.496 343.077 185.725 344.779 185.107 346.53C184.567 347.985 184.156 349.564 184.542 351.093C185.262 354.028 188.631 353.584 191.049 353.387C193.029 353.214 194.958 353.017 196.913 353.239C198.354 353.412 199.562 354.028 200.874 354.521C202.032 354.965 203.086 356.371 203.781 357.358C204.809 358.838 204.809 360.86 203.884 362.389C201.852 365.694 196.913 365.152 193.544 365.102C190.612 365.053 187.705 365.127 184.825 364.584C183.719 364.362 182.69 364.141 181.712 363.549C179.989 362.463 179.192 360.17 178.754 358.32C178.291 356.347 178.394 354.25 178.446 352.252C178.497 350.205 178.703 348.207 179.32 346.234C179.86 344.532 180.838 343.077 181.584 341.474C182.304 339.92 182.484 338.12 182.304 336.467C181.867 332.718 178.754 330.252 175.797 328.155C174.793 327.465 173.61 328.92 174.613 329.635Z" fill="black"/>
<path d="M177.829 236.06C183.616 237.343 189.532 238.527 194.727 241.289C199.563 243.879 203.087 247.726 205.247 252.413C207.485 257.419 208.076 263.092 208.102 268.494C208.282 273.673 207.382 278.853 207.125 283.983C206.868 288.57 206.379 292.122 205.787 296.562L205.427 299.25C205.093 301.618 204.295 303.838 203.472 306.033C201.672 310.867 200.077 316.046 197.299 320.535C195.01 324.21 191.229 327.787 186.831 329.439L184.053 330.302C180.144 331.018 176.234 330.845 172.145 331.215C169.341 331.412 166.409 331.486 163.528 331.116C161.522 330.968 159.67 330.524 157.664 330.475C154.526 330.302 151.62 329.267 148.533 328.551C146.681 328.206 144.572 327.836 142.746 327.269C141.177 326.751 138.785 325.666 137.653 324.654L135.698 323.199C133.769 321.645 131.969 319.968 130.709 317.946C129.5 315.701 128.831 313.21 128.394 310.719C127.802 307.562 127.365 304.43 126.799 301.174C126.31 298.263 126.208 295.378 125.847 292.369C125.462 289.582 125.693 287.066 126.207 284.279C127.108 279.667 128.111 275.079 128.882 270.442L129.32 267.211C129.32 267.211 129.294 267.433 129.577 267.236C130.76 260.576 132.226 253.498 136.367 247.43C141.151 240.352 149.253 236.751 158.513 235.715C163.888 235.296 169.444 235.567 175 235.616L177.829 236.06Z" fill="#F20C60"/>
<path d="M200.514 302.555C201.98 303.837 203.601 304.923 205.401 305.712C207.69 306.55 210.108 306.526 212.449 306.945C216.049 307.512 219.959 308.03 223.38 306.402L226.312 304.947C229.218 303.122 232.022 301.272 234.594 299.077C239.352 294.835 243.236 289.729 245.525 284.081C246.528 281.467 247.48 278.162 246.477 275.301C245.68 272.884 243.699 272.119 241.153 271.256C241.153 271.256 238.889 271.33 237.912 272.242C235.34 274.561 232.974 276.879 230.942 279.592C227.675 283.909 225.18 289.187 219.393 291.653C216.975 292.664 214.249 293.084 211.497 292.738C208.899 292.295 206.764 291.259 204.501 290.198" fill="#F20C60"/>
<path d="M136.496 296.883C131.764 295.403 127.314 293.627 122.761 291.629C118.826 289.804 114.891 288.004 110.801 286.376C106.943 284.896 103.651 283.046 100.873 280.284C96.7321 276.362 93.1312 271.158 91.9481 265.954C91.5108 263.586 92.1538 261.44 92.6425 259.122C93.1569 256.655 94.4172 254.83 96.7578 254.041C96.7578 254.041 99.0984 254.041 100.513 254.855C103.239 256.409 104.911 258.357 106.454 260.972C107.895 263.364 108.795 266.102 109.978 268.568C111.264 271.158 113.116 273.476 115.662 275.228C117.977 276.831 121.012 277.891 123.919 277.817C126.465 277.817 128.626 276.88 130.683 275.696" fill="#F20C60"/>
<path d="M164.634 255.026C165.74 255.667 166.898 256.407 167.592 257.443C168.364 258.578 168.621 259.836 168.621 261.094C168.698 263.585 167.695 265.878 166.306 268.049L164.84 270.071C163.554 271.453 162.294 272.612 160.493 273.475C159.593 273.944 158.616 274.19 157.664 274.437C156.79 274.684 155.915 274.881 154.938 274.684L152.751 274.042C150.642 272.242 148.765 270.392 148.199 267.827C147.659 265.558 148.019 262.968 149.15 260.921C149.716 259.811 150.539 258.75 151.285 257.739L152.571 256.358C153.703 254.952 155.452 253.867 157.304 253.3C159.439 252.609 161.342 253.374 163.143 254.41L164.634 255.026Z" fill="white"/>
<path d="M193.209 262.82C192.077 259.959 190.611 257.148 187.242 255.84C185.879 255.298 184.31 255.101 182.741 255.347C181.352 255.692 180.143 256.334 178.96 257L177.571 257.912C175.848 259.318 174.69 260.995 174.304 263.141C173.996 265.312 174.459 267.482 174.845 269.578L175.925 271.576C176.182 272.119 176.979 272.76 177.52 273.204C178.06 273.648 178.265 273.969 178.831 274.339C179.449 274.758 179.886 275.202 180.529 275.424C181.172 275.572 181.712 275.72 182.381 275.868L185.39 275.893C190.483 274.487 192.772 270.17 193.621 265.879L193.209 262.82Z" fill="white"/>
<path d="M162.756 257.593C161.573 259.221 160.853 261.071 160.904 263.34C160.982 265.461 161.753 267.484 163.502 266.892C166.589 265.979 168.929 260.306 166.614 257.273C165.071 255.472 163.554 257.865 162.371 259.492" fill="#161511"/>
<path d="M177.623 258.752C176.208 259.689 175.411 261.292 175.205 263.512C175.025 265.584 175.385 268.593 176.98 269.086C179.526 269.826 181.893 263.956 181.43 260.947C180.992 258.505 178.78 259.615 177.443 260.01" fill="#161511"/>
<path d="M148.584 311.31C149.382 309.213 149.999 307.092 150.796 305.07C151.208 303.96 151.619 302.825 152.237 301.888C152.571 301.346 153.086 300.606 153.909 300.704C154.655 300.877 155.195 301.74 155.555 302.307C156.095 303.245 156.378 304.305 156.661 305.316C157.149 306.772 157.278 308.252 157.33 309.731C157.458 311.285 157.741 312.864 158.024 314.442" fill="white"/>
<path d="M171.321 313.827C171.913 312.594 172.504 311.336 173.019 310.004C173.662 308.401 174.331 306.65 175.282 305.17C175.822 304.356 176.826 303.098 178.009 303.838C179.269 304.578 179.783 306.329 180.041 307.537C180.478 309.289 180.658 310.99 180.684 312.742" fill="white"/>
<path d="M199.434 246.74C201.415 245.063 203.447 243.311 204.501 240.944C205.067 239.71 205.041 238.305 205.144 236.997C205.247 235.641 205.35 234.235 205.17 232.854C204.835 230.19 203.112 227.674 202.032 225.282C201.389 223.901 200.617 222.963 199.64 221.804C199.125 221.188 198.019 221.434 197.917 222.248C197.814 222.939 197.454 223.679 197.274 224.369C196.991 225.381 196.708 226.367 196.348 227.354C195.679 229.203 194.701 230.979 193.647 232.656C192.67 234.235 191.589 235.814 190.38 237.244C189.069 238.773 187.345 239.538 185.391 240.006C184.388 240.228 184.259 241.684 185.391 241.832C185.416 241.832 185.442 241.832 185.468 241.832C186.702 241.98 186.96 240.154 185.725 240.006C185.699 240.006 185.674 240.006 185.648 240.006C185.648 240.623 185.648 241.24 185.648 241.832C187.448 241.412 189.094 240.82 190.535 239.71C192.284 238.379 193.518 236.331 194.676 234.556C195.936 232.607 197.094 230.609 197.968 228.488C198.431 227.378 198.714 226.219 199.048 225.085C199.28 224.246 199.717 223.358 199.846 222.495C199.28 222.643 198.688 222.791 198.122 222.939C198.714 223.629 199.511 224.32 199.871 225.134C200.926 227.502 202.418 229.845 203.112 232.336C203.447 233.495 203.344 234.679 203.292 235.863C203.241 237.022 203.215 238.181 203.009 239.316C202.598 241.782 200.103 243.706 198.277 245.26C197.351 246.074 198.508 247.529 199.434 246.74Z" fill="black"/>
<path d="M160.673 237.589C158.667 233.742 158.976 229.623 160.03 225.528C160.288 224.566 160.596 223.605 160.931 222.667C161.162 222.001 161.342 221.138 161.754 220.546C162.217 219.856 162.68 219.19 163.168 218.499C163.606 217.882 163.168 216.846 162.268 217.019C160.185 217.438 158.127 217.759 156.121 218.45C153.163 219.486 150.745 221.483 148.662 223.678C146.476 225.997 145.061 228.587 144.624 231.694C144.187 234.827 144.778 237.984 145.678 240.968C146.013 242.103 147.813 241.387 147.453 240.253C146.63 237.54 146.218 234.753 146.527 231.941C146.836 229.129 148.25 226.91 150.179 224.813C152.057 222.791 154.243 221.138 156.867 220.152C158.693 219.461 160.622 219.239 162.525 218.844C162.217 218.351 161.934 217.858 161.625 217.364C161.136 218.08 160.648 218.795 160.159 219.51C159.053 221.113 158.616 223.457 158.101 225.282C156.944 229.623 156.764 234.21 158.899 238.304C159.439 239.365 161.239 238.674 160.673 237.589Z" fill="black"/>
<path d="M136.033 303.148C138.296 307.365 142 310.3 146.347 312.495C148.945 313.803 151.722 314.937 154.577 315.652C157.484 316.368 160.648 316.54 163.605 316.688C165.097 316.762 166.718 316.417 168.209 316.318C171.27 316.096 174.331 315.578 177.34 315.011C179.989 314.493 182.459 313.729 184.645 312.15C186.985 310.473 188.915 308.253 191.101 306.379C192.027 305.589 190.869 304.11 189.918 304.899C187.937 306.601 186.111 308.475 184.13 310.152C182.073 311.879 179.681 312.643 177.057 313.161C172.762 314.025 168.415 314.247 164.094 314.863C162.988 315.011 161.573 314.69 160.467 314.567C159.027 314.419 157.587 314.345 156.172 314.123C153.471 313.679 150.822 312.545 148.379 311.435C144.006 309.462 140.071 306.65 137.808 302.457C137.242 301.396 135.441 302.087 136.033 303.148Z" fill="black"/>
<path d="M169.315 238.502C168.081 234.605 157.098 240.697 158.615 246.173C159.978 243.706 163.168 242.572 166.229 242.522C159.181 244.051 168.389 250.711 170.498 252.067C168.698 248.54 170.112 245.655 171.347 242.276C171.09 244.224 173.045 246.444 174.999 247.135C174.742 245.334 174.511 243.336 174.768 241.388C178.034 241.585 177.134 244.545 178.806 245.186C180.709 246.099 181.61 245.112 181.198 242.621C180.889 239.291 176.054 235.814 172.504 237.565" fill="#191713"/>
<path d="M241.693 326.948C243.854 323.026 250.721 312.717 243.005 310.595C242.645 310.497 242.002 310.423 241.822 310.053C241.436 309.313 241.95 307.981 242.156 307.266C242.85 304.676 243.108 302.21 242.979 299.546C242.799 296.339 243.082 293.355 243.673 290.198C244.239 287.066 244.702 283.933 244.265 280.776C244.162 279.987 242.876 280.16 242.979 280.949C243.828 286.967 241.179 292.788 241.642 298.831C241.847 301.519 241.693 304.059 241.024 306.649C240.69 307.882 239.867 310.053 241.076 311.113C241.873 311.804 243.108 311.779 244.008 312.347C245.628 313.383 245.397 315.257 245.037 316.86C244.239 320.289 242.259 323.396 240.561 326.455C240.124 327.17 241.307 327.638 241.693 326.948Z" fill="#191713"/>
<path d="M95.5227 267.285C95.9085 267.655 96.0371 268.395 96.1657 268.863C96.4229 269.85 96.5515 270.886 96.6544 271.897C96.9116 274.265 96.9888 276.633 96.9631 279.025C96.9373 280.678 97.0145 282.601 96.32 284.155C95.3169 286.424 92.3848 287.312 91.1759 289.507C89.8899 291.9 91.3817 294.046 92.9249 295.92C94.9311 298.337 96.9373 301.494 95.6513 304.676C95.1883 305.835 94.7511 306.896 95.0598 308.154C95.3427 309.313 96.3458 310.373 97.426 310.916C99.5866 312.026 102.493 311.533 102.905 308.869C103.085 307.685 102.339 306.55 102.596 305.342C102.827 304.183 102.853 303.221 102.699 302.037C102.262 298.584 100.873 295.303 100.332 291.85C99.3808 285.783 103.136 279.938 106.737 275.227C107.226 274.585 106.223 273.821 105.708 274.462C104.011 276.682 102.493 279.074 101.207 281.541C99.9209 284.032 98.8921 286.622 98.8664 289.409C98.8149 292.714 99.9467 295.92 100.77 299.077C101.156 300.582 101.464 302.136 101.541 303.689C101.593 304.701 101.13 305.613 101.284 306.649C101.387 307.315 101.644 307.956 101.619 308.647C101.593 309.683 100.538 310.25 99.5866 310.225C97.7861 310.201 96.0885 308.548 96.2429 306.822C96.32 306.106 96.7059 305.416 96.9631 304.75C97.1945 304.133 97.2717 303.467 97.2974 302.826C97.3489 301.322 96.9116 299.817 96.2943 298.461C95.214 295.994 92.2304 294.218 91.9218 291.456C91.6389 289.039 95.3941 287.263 96.783 285.66C97.7861 284.476 97.9919 282.996 98.1205 281.541C98.3005 279.568 98.2748 277.57 98.1977 275.572C98.1205 273.599 97.9919 271.626 97.6575 269.677C97.4517 268.518 97.2203 267.088 96.32 266.224C95.7285 265.756 94.9568 266.742 95.5227 267.285Z" fill="#191713"/>
<path d="M240.613 326.405C239.559 328.477 240.999 330.524 241.565 332.522C241.899 333.681 241.796 335.013 240.819 335.852C239.97 336.567 238.633 336.69 237.552 336.665C236.472 336.641 235.366 336.37 234.492 335.778C233.643 335.21 233.566 334.248 233.36 333.36C233.154 332.448 233.411 331.412 233.334 330.475C233.257 329.587 232.717 328.28 231.997 327.737C231.148 327.096 229.836 327.046 229.553 325.887C229.116 324.21 230.376 324.284 231.585 324.062C233.771 323.643 234.852 321.645 235.34 319.795C236.318 316.021 236.781 312.1 237.501 308.302C238.118 305.046 238.993 301.913 239.893 298.732C240.767 295.575 243.597 278.926 236.163 281.393C235.392 281.664 235.881 282.799 236.652 282.527C241.745 280.826 239.301 296.265 238.607 298.559C237.604 301.864 236.781 305.194 236.138 308.598C235.418 312.371 234.955 316.243 233.977 319.968C233.669 321.127 233 322.064 231.868 322.681C231.071 323.125 230.042 322.903 229.245 323.322C227.444 324.259 228.113 327.194 229.708 327.984C230.222 328.23 230.865 328.378 231.251 328.773C231.765 329.266 232.022 330.203 232.074 330.869C232.125 331.585 232.022 332.325 231.997 333.04C231.971 333.508 232.177 334.002 232.28 334.446C232.82 336.715 234.8 337.677 237.089 337.899C239.533 338.121 242.156 337.307 242.877 334.84C243.237 333.607 242.877 332.325 242.439 331.141C241.951 329.784 241.076 328.304 241.796 326.898C242.156 326.183 240.973 325.69 240.613 326.405Z" fill="#191713"/>
</svg>
