<svg width="200" height="200" viewBox="0 0 200 200" fill="none" xmlns="http://www.w3.org/2000/svg">
<path d="M72.7334 141.826C68.9074 142.863 65.1141 144.159 62.2692 147.01C58.9337 150.314 58.8029 155.109 59.3915 159.451C60.0455 164.375 61.2227 169.429 60.863 174.419C60.7322 176.363 60.0782 178.145 58.8356 179.667C57.266 181.611 54.748 182.454 52.459 183.231C49.1235 184.365 45.69 185.11 42.2891 186.05C38.7574 187.022 35.2258 187.054 31.6614 186.082C28.2605 185.143 24.9577 182.972 23.0611 180.024C21.2625 177.173 21.9819 173.512 24.598 171.471C27.9662 168.846 33.0348 168.749 37.1224 168.62C40.4579 168.522 43.8914 168.814 47.0961 167.712C53.113 165.606 53.8324 157.539 53.0803 152.258C52.6225 149.019 52.459 145.682 52.132 142.409C51.7723 138.619 52.7533 135.055 54.2902 131.621C54.9443 130.195 52.7206 129.158 52.0666 130.584C50.0718 135.055 49.287 139.494 49.8756 144.353C50.17 146.686 50.3007 148.986 50.4969 151.351C50.595 152.518 50.8567 153.651 50.9548 154.818C51.1183 156.276 50.7913 157.766 50.4643 159.192C49.9084 161.621 49.0908 164.084 46.671 165.25C45.3629 165.866 44.153 165.995 42.7469 166.06C40.2616 166.157 37.8091 166.157 35.3238 166.287C29.6339 166.546 22.0473 167.648 20.0199 173.868C17.7636 180.801 24.6307 186.374 30.5495 188.285C33.8523 189.354 37.1878 189.419 40.6213 189.063C42.1256 188.901 43.6952 188.22 45.134 187.832C51.0529 186.179 58.5086 185.272 61.9095 179.538C63.4791 176.881 63.4137 173.609 63.2502 170.661C63.054 166.643 62.2692 162.691 61.746 158.706C61.2228 154.85 61.6152 151.189 64.4928 148.306C66.8473 145.973 70.477 145.001 73.6163 144.159C75.1205 143.705 74.2703 141.437 72.7334 141.826Z" fill="black"/>
<path d="M105.108 149.537C108.836 152.518 112.531 155.822 112.106 161.006C111.942 163.177 110.961 165.056 109.849 166.87C108.672 168.814 107.887 170.92 107.266 173.09C106.645 175.294 106.514 177.594 106.35 179.862C106.187 182.356 106.056 184.916 106.35 187.378C106.873 191.363 108.541 195.51 112.236 197.519C114.068 198.523 116.847 199.171 118.907 199.268C123.845 199.56 128.848 200.111 133.819 199.981C137.808 199.884 141.7 198.037 143.433 194.344C145.166 190.618 143.662 186.73 141.078 183.879C140.424 183.166 139.607 182.097 138.724 181.708C138.005 181.384 137.252 181.093 136.566 180.704C133.95 179.181 130.549 179.084 127.573 179.181C125.938 179.214 124.336 179.376 122.701 179.441C121.654 179.473 120.019 179.635 119.267 178.76C118.351 177.659 119.104 175.456 119.463 174.289C119.986 172.734 120.739 171.244 121.36 169.753C122.635 166.708 123.649 163.598 124.532 160.455C125.48 157.053 125.349 153.36 124.892 149.893C124.728 148.695 123.878 147.366 123.322 146.297C122.57 144.872 121.72 143.122 120.052 142.669C118.548 142.247 118.123 144.645 119.627 145.066C120.052 145.196 121 147.107 121.327 147.755C121.752 148.63 122.145 149.505 122.504 150.412C122.864 151.319 122.733 152.842 122.766 153.814C122.831 155.109 122.733 156.405 122.57 157.669C122.243 160.293 121.327 162.885 120.412 165.38C119.005 169.3 116.357 173.285 116.422 177.561C116.487 181.579 120.346 181.903 123.518 181.806C126.036 181.708 128.587 181.384 131.105 181.676C133.165 181.903 134.8 182.68 136.664 183.49C140.195 185.078 142.583 189.646 141.144 193.307C139.214 198.232 132.772 197.648 128.554 197.422C124.663 197.227 120.608 197.292 116.847 196.385C115.605 196.093 114.395 195.834 113.217 195.283C110.798 194.149 109.751 191.395 109.064 188.998C108.28 186.179 108.476 183.102 108.672 180.218C108.836 177.497 109.097 174.808 109.98 172.216C110.765 169.786 112.171 167.777 113.283 165.509C114.297 163.501 114.591 161.103 114.46 158.9C114.1 153.943 110.242 150.509 106.612 147.593C105.467 146.686 103.865 148.565 105.108 149.537Z" fill="black"/>
<path d="M114.035 25.8718C121.36 27.848 128.849 29.6947 135.324 33.5825C141.373 37.2435 145.657 42.492 148.175 48.7773C150.758 55.5161 151.249 63.0649 150.987 70.1925C150.954 77.0609 149.548 83.8645 148.927 90.6358C148.371 96.6942 147.554 101.392 146.573 107.224L145.951 110.787C145.428 113.93 144.251 116.814 143.106 119.665C140.556 125.982 138.234 132.753 134.473 138.553C131.367 143.315 126.363 147.883 120.641 149.827L117.044 150.832C112.041 151.609 107.037 151.188 101.805 151.48C98.2082 151.609 94.4803 151.544 90.8179 150.929C88.2672 150.637 85.9454 149.957 83.3621 149.827C79.3726 149.439 75.7101 147.948 71.8187 146.847C69.4643 146.296 66.8155 145.713 64.4938 144.87C62.4991 144.093 59.5233 142.57 58.1499 141.145L55.73 139.136C53.3428 136.965 51.1192 134.697 49.6477 131.943C48.2089 128.93 47.4894 125.561 47.0643 122.289C46.4757 118.077 46.0506 113.93 45.4947 109.589C45.0369 105.701 45.0369 101.91 44.7426 97.893C44.4156 94.1672 44.808 90.8626 45.5928 87.2016C46.9662 81.1431 48.5032 75.117 49.7131 69.0262L50.4325 64.7496C50.4325 64.7496 50.3998 65.0412 50.7595 64.8144C52.5907 56.0345 54.8471 46.7686 60.4389 38.9282C66.9137 29.7595 77.4106 25.4182 89.2809 24.4786C96.1808 24.187 103.211 24.8026 110.34 25.1266L114.035 25.8718Z" fill="#8A99A6"/>
<path d="M139.541 114.966C141.34 116.748 143.367 118.238 145.623 119.372C148.501 120.603 151.575 120.668 154.551 121.316C159.129 122.223 164.067 123.098 168.514 121.122L172.307 119.34C176.133 117.072 179.763 114.739 183.196 111.953C189.508 106.575 194.707 99.9981 197.912 92.6437C199.318 89.2095 200.724 84.9329 199.58 81.0775C198.664 77.8377 196.179 76.7362 192.974 75.4727C192.974 75.4727 190.096 75.4727 188.788 76.6066C185.387 79.5548 182.248 82.5355 179.501 86.0345C175.119 91.5746 171.653 98.4754 164.165 101.456C161.025 102.687 157.526 103.108 154.06 102.525C150.757 101.812 148.076 100.355 145.264 98.8318" fill="#8A99A6"/>
<path d="M58.1823 104.406C52.198 102.235 46.6389 99.6758 40.949 96.7924C36.0112 94.2005 31.1061 91.6087 25.9721 89.276C21.1324 87.1377 17.0121 84.5459 13.6112 80.7553C8.50991 75.3448 4.19347 68.3144 2.95084 61.3812C2.52573 58.2386 3.44137 55.4199 4.19348 52.3745C4.9783 49.1347 6.6787 46.802 9.71986 45.8301C9.71986 45.8301 12.6956 45.9597 14.4615 47.0936C17.8623 49.2643 19.8898 51.9533 21.721 55.4847C23.4541 58.6921 24.4352 62.3855 25.8086 65.6901C27.3128 69.1568 29.5365 72.3318 32.7085 74.7616C35.5861 76.9971 39.3794 78.5198 43.1073 78.5846C46.3447 78.6818 49.1569 77.5479 51.8384 76.1224" fill="#8A99A6"/>
<path d="M96.1804 50.3316C97.5538 51.2387 98.9927 52.2755 99.8429 53.6686C100.759 55.1913 101.02 56.9084 100.955 58.5283C100.922 61.8329 99.5486 64.8136 97.6519 67.6322L95.6899 70.2241C93.9895 71.9736 92.3217 73.4639 89.9673 74.533C88.79 75.1162 87.5474 75.3754 86.3048 75.667C85.1603 75.9586 84.0485 76.1529 82.8058 75.8614L80.0263 74.9218C77.4102 72.4271 75.1539 69.9001 74.5326 66.4659C73.9766 63.4528 74.5653 60.0186 76.1022 57.362C76.887 55.9365 77.9989 54.5433 78.9799 53.2474L80.6803 51.4979C82.1845 49.716 84.4736 48.3229 86.8607 47.6749C89.6076 46.865 92.0274 47.9665 94.2511 49.4244L96.1804 50.3316Z" fill="white"/>
<path d="M132.282 61.9961C130.974 58.1731 129.274 54.3501 125.023 52.4711C123.322 51.6935 121.295 51.3695 119.3 51.5963C117.501 51.9851 115.964 52.795 114.395 53.605L112.564 54.7713C110.307 56.5208 108.738 58.7239 108.149 61.5425C107.658 64.3936 108.149 67.3094 108.509 70.0956L109.784 72.7847C110.078 73.5298 111.059 74.4046 111.713 75.0202C112.367 75.6033 112.629 76.0569 113.348 76.5752C114.133 77.1584 114.656 77.774 115.474 78.098C116.291 78.3248 116.978 78.5515 117.796 78.7783L121.622 78.9403C128.194 77.3204 131.334 71.7156 132.642 66.0783L132.282 61.9961Z" fill="white"/>
<path d="M93.6628 53.6688C92.0931 55.7747 91.0467 58.1722 90.9813 61.1852C90.9486 63.9715 91.8643 66.7253 94.1206 66.0126C98.1101 64.9758 101.38 57.5566 98.5678 53.4096C96.7039 50.9474 94.6438 54.0252 93.0415 56.1311" fill="#161511"/>
<path d="M112.596 55.873C110.765 57.0718 109.653 59.1129 109.261 62.0611C108.901 64.8149 109.228 68.7999 111.256 69.5127C114.46 70.6142 117.796 62.9358 117.371 58.9509C116.913 55.6787 114.035 57.0718 112.335 57.5254" fill="#161511"/>
<path d="M72.8652 124.07C73.9771 121.316 74.8926 118.562 76.0045 115.906C76.5931 114.448 77.149 112.99 78.0319 111.759C78.4897 111.046 79.1764 110.106 80.2555 110.268C81.2039 110.528 81.8579 111.694 82.2503 112.472C82.9043 113.767 83.1986 115.161 83.5256 116.489C84.0488 118.433 84.147 120.409 84.147 122.353C84.2124 124.426 84.5067 126.5 84.801 128.606" fill="white"/>
<path d="M101.707 128.478C102.525 126.858 103.342 125.238 104.094 123.521C105.01 121.415 105.925 119.147 107.233 117.236C107.953 116.199 109.326 114.579 110.765 115.584C112.335 116.62 112.891 118.985 113.152 120.573C113.61 122.906 113.774 125.173 113.708 127.506" fill="white"/>
<path d="M141.013 41.0349C143.596 38.8966 146.278 36.6935 147.782 33.6157C148.567 31.9958 148.632 30.1815 148.796 28.432C148.992 26.6177 149.188 24.771 149.057 22.9567C148.763 19.4253 146.703 16.0235 145.428 12.7837C144.708 10.9046 143.76 9.64104 142.55 8.05353C141.929 7.21117 140.523 7.47036 140.326 8.5395C140.163 9.44665 139.672 10.4186 139.378 11.2933C138.953 12.6217 138.56 13.9176 138.037 15.2135C137.089 17.6434 135.748 19.9113 134.309 22.1143C132.969 24.1554 131.53 26.1965 129.895 28.0108C128.162 29.9547 125.905 30.9267 123.387 31.445C122.079 31.7042 121.851 33.6157 123.289 33.8425C123.322 33.8425 123.355 33.8425 123.387 33.8749C124.957 34.1341 125.349 31.7366 123.812 31.4774C123.78 31.4774 123.747 31.4774 123.714 31.445C123.682 32.255 123.649 33.0649 123.616 33.8425C125.905 33.3889 128.064 32.6762 129.96 31.283C132.249 29.5983 133.95 26.9417 135.519 24.6414C137.22 22.1467 138.789 19.5549 139.999 16.7686C140.621 15.3107 141.079 13.8204 141.536 12.3301C141.896 11.2286 142.485 10.0946 142.681 8.92828C141.929 9.09027 141.209 9.25226 140.457 9.41426C141.177 10.3538 142.158 11.3257 142.583 12.4273C143.825 15.6023 145.591 18.8097 146.343 22.1143C146.703 23.6694 146.539 25.2246 146.409 26.7797C146.278 28.3024 146.18 29.8575 145.885 31.3478C145.231 34.5876 141.929 37.0175 139.509 38.9938C138.397 40.0306 139.803 42.0392 141.013 41.0349Z" fill="black"/>
<path d="M92.06 27.1033C89.7383 22.0168 90.2941 16.7035 91.7657 11.455C92.1581 10.0294 92.6813 8.63632 93.2046 7.27559C93.5316 6.43324 93.7931 5.33169 94.3163 4.61893C94.9377 3.74418 95.5917 2.86943 96.213 1.99468C96.7689 1.21712 96.3111 -0.175996 95.1666 0.0183931C92.4197 0.471969 89.6728 0.795935 87.0241 1.70309C83.2635 2.96662 80.1897 5.4613 77.4428 8.21515C74.5325 11.1634 72.6031 14.5328 71.8837 18.615C71.1643 22.7296 71.7529 26.9413 72.7666 30.9263C73.159 32.449 75.4481 31.5743 75.0557 30.084C74.1401 26.4554 73.7476 22.7296 74.3035 19.0362C74.8922 15.116 76.985 12.1353 79.7319 9.38148C82.1844 6.88681 85.0294 4.94292 88.3648 3.84138C90.6212 3.09622 93.041 2.86943 95.3955 2.48065C95.0358 1.83269 94.6761 1.15233 94.3491 0.504367C93.6951 1.41152 93.0083 2.35107 92.3543 3.25822C90.9155 5.26691 90.2288 8.24754 89.5094 10.5802C87.7435 16.3471 87.2203 22.5028 89.771 28.0753C90.3923 29.3712 92.6813 28.5288 92.06 27.1033Z" fill="black"/>
<path d="M57.2334 112.7C59.9149 118.37 64.4602 122.452 69.8885 125.53C73.1586 127.376 76.6249 129.029 80.2546 130.065C83.9171 131.135 87.9393 131.523 91.7326 131.88C92.5828 131.945 93.335 131.847 94.1852 131.783C95.4932 131.621 96.8012 131.653 98.1093 131.588C101.87 131.394 105.63 130.908 109.326 130.292C112.759 129.741 115.931 128.834 118.809 126.858C121.883 124.72 124.466 121.901 127.344 119.536C128.554 118.532 127.147 116.555 125.937 117.56C123.321 119.698 120.902 122.095 118.286 124.234C115.571 126.404 112.498 127.312 109.097 127.895C103.603 128.834 98.1092 128.899 92.5828 129.515C91.2748 129.644 89.7379 129.223 88.4626 129.061C86.6313 128.802 84.7674 128.64 82.9688 128.284C79.5353 127.668 76.1997 126.08 73.1259 124.525C67.436 121.642 62.302 117.722 59.5551 111.858C58.8684 110.432 56.5794 111.274 57.2334 112.7Z" fill="black"/>
<path d="M103.015 28.6909C101.642 23.4747 87.3187 31.0235 88.9864 38.3131C90.8504 35.1057 94.9707 33.7774 98.8621 33.8422C89.7713 35.5269 101.217 44.7928 103.8 46.6719C101.674 41.9093 103.636 38.1511 105.37 33.7774C104.944 36.3368 107.332 39.3823 109.751 40.3866C109.522 37.9892 109.326 35.3325 109.751 32.773C113.904 33.1942 112.596 37.0496 114.722 37.9891C117.109 39.2851 118.286 38.0215 117.894 34.7169C117.665 30.2784 111.681 25.451 107.07 27.6217" fill="#191713"/>
<path d="M190.817 149.179C193.76 144.125 203.08 130.777 193.335 127.634C192.877 127.472 192.059 127.375 191.83 126.856C191.373 125.852 192.125 124.135 192.386 123.163C193.4 119.794 193.858 116.521 193.825 112.99C193.793 108.713 194.283 104.826 195.199 100.646C196.082 96.5316 196.834 92.417 196.441 88.2052C196.343 87.1685 194.708 87.3304 194.806 88.3672C195.558 96.3696 191.896 103.951 192.157 111.986C192.288 115.549 191.961 118.886 190.948 122.321C190.457 123.94 189.28 126.759 190.784 128.217C191.765 129.157 193.335 129.189 194.446 129.967C196.474 131.424 196.049 133.919 195.526 135.993C194.348 140.496 191.634 144.513 189.313 148.498C188.789 149.373 190.294 150.053 190.817 149.179Z" fill="#191713"/>
<path d="M7.43068 63.3247C7.88849 63.8107 8.01928 64.7826 8.15008 65.3981C8.41169 66.6941 8.54249 68.0548 8.64059 69.3831C8.8695 72.4934 8.83683 75.6036 8.67332 78.7138C8.57522 80.8845 8.50977 83.3144 7.72496 85.3879C6.54773 88.4657 2.65635 89.6968 0.857813 92.3859C-1.00613 95.2045 0.498169 98.1203 2.23131 100.55C4.65116 103.952 6.90749 107.321 6.05727 111.76C5.73026 113.445 4.48759 114.805 4.61839 116.62C4.74919 118.369 5.69751 119.795 7.07094 120.864C9.49079 122.743 13.4149 122.613 14.5594 119.374C15.1481 117.656 14.1016 115.907 14.4613 114.19C14.7229 112.991 14.8864 112.052 14.8537 110.82C14.6902 106.188 13.0225 101.684 12.4012 97.116C11.7799 92.6126 12.6628 88.7897 14.6902 84.7723C16.4888 81.1437 18.7778 77.6771 21.3285 74.5021C21.9825 73.6921 20.7398 72.6553 20.0858 73.4653C17.8622 76.2839 15.8674 79.2646 14.1016 82.4072C12.3685 85.5174 10.8969 88.8221 10.6026 92.3859C10.2429 96.6624 11.4202 100.874 12.3358 104.989C12.7609 106.965 13.1206 108.974 13.2514 111.015C13.3495 112.376 12.859 113.51 12.7609 114.838C12.5974 116.782 13.9709 118.758 12.0415 120.216C10.0795 121.706 7.20181 119.244 6.48239 117.559C5.69758 115.777 7.26715 113.769 7.72496 112.084C8.21547 110.173 7.85578 108.099 7.33256 106.22C6.35154 102.624 3.44117 100.291 2.00234 96.954C0.400003 93.1958 4.88001 90.9603 7.16906 88.8545C10.7661 85.5822 10.3737 79.945 10.4391 75.5064C10.5045 72.6554 10.4065 69.8043 10.0795 66.9533C9.88327 65.3658 9.68705 63.3247 8.50982 62.0935C7.75771 61.316 6.71127 62.5471 7.43068 63.3247Z" fill="#191713"/>
<path d="M189.443 148.401C188.004 151.09 189.737 153.877 190.325 156.533C190.685 158.088 190.489 159.838 189.181 160.907C188.069 161.814 186.336 161.911 184.963 161.814C183.589 161.717 182.183 161.328 181.104 160.486C180.058 159.676 179.992 158.412 179.796 157.246C179.567 156.015 179.959 154.687 179.927 153.423C179.894 152.257 179.273 150.507 178.357 149.73C177.278 148.823 175.643 148.693 175.316 147.138C174.858 144.935 176.46 145.032 177.997 144.805C180.581 144.384 182.216 142.019 182.902 139.719C184.374 134.859 185.126 129.772 186.205 124.815C187.186 120.409 188.429 116.133 189.802 111.856C191.143 107.742 195.656 85.6136 186.009 88.5294C184.995 88.821 185.584 90.3438 186.598 90.0522C193.203 88.0435 189.279 108.292 188.298 111.273C186.957 115.452 185.715 119.632 184.734 123.941C183.589 128.962 182.837 134.081 181.398 139.038C180.94 140.593 180.45 141.501 179.142 142.505C178.03 143.38 176.787 143.218 175.479 143.542C172.831 144.19 173.321 148.272 174.956 149.633C175.479 150.054 176.133 150.28 176.722 150.572C177.638 151.026 178.095 152.322 178.226 153.294C178.488 154.849 177.932 156.404 178.226 157.991C178.455 159.222 178.651 160.389 179.567 161.328C180.744 162.495 182.347 163.045 183.949 163.337C187.121 163.855 190.718 162.948 191.797 159.611C192.32 157.991 191.928 156.274 191.437 154.719C190.881 152.905 189.835 150.896 190.816 149.049C191.437 148.175 189.933 147.494 189.443 148.401Z" fill="#191713"/>
</svg>
