<svg width="316" height="433" viewBox="0 0 316 433" fill="none" xmlns="http://www.w3.org/2000/svg">
<path d="M125.101 212.737C119.362 214.292 113.672 216.236 109.405 220.513C104.401 225.47 104.205 232.662 105.088 239.174C106.069 246.561 107.835 254.142 107.295 261.626C107.099 264.542 106.118 267.215 104.254 269.499C101.9 272.415 98.1229 273.678 94.6894 274.845C89.6862 276.546 84.5359 277.663 79.4346 279.073C74.1371 280.531 68.8396 280.579 63.493 279.121C58.3917 277.712 53.4376 274.456 50.5926 270.034C47.8948 265.757 48.9739 260.266 52.898 257.204C57.9502 253.267 65.5531 253.122 71.6845 252.927C76.6877 252.782 81.8381 253.219 86.6451 251.567C95.6704 248.408 96.7496 236.307 95.6214 228.386C94.9347 223.526 94.6894 218.52 94.1989 213.612C93.6593 207.926 95.1309 202.58 97.4363 197.429C98.4173 195.291 95.0818 193.736 94.1008 195.874C91.1087 202.58 89.9315 209.238 90.8144 216.528C91.2558 220.027 91.452 223.477 91.7463 227.025C91.8935 228.774 92.2859 230.475 92.4331 232.225C92.6783 234.412 92.1878 236.647 91.6973 238.785C90.8635 242.43 89.6371 246.124 86.0074 247.873C84.0453 248.797 82.2304 248.991 80.1213 249.088C76.3934 249.234 72.7146 249.234 68.9867 249.428C60.4518 249.817 49.072 251.469 46.0308 260.8C42.6463 271.2 52.947 279.559 61.8252 282.426C66.7794 284.03 71.7826 284.127 76.9329 283.592C79.1893 283.349 81.5438 282.329 83.702 281.746C92.5802 279.267 103.764 277.906 108.865 269.305C111.22 265.32 111.121 260.411 110.876 255.989C110.582 249.963 109.405 244.034 108.62 238.057C107.835 232.273 108.424 226.782 112.74 222.457C116.272 218.958 121.716 217.5 126.425 216.236C128.682 215.556 127.406 212.154 125.101 212.737Z" fill="black"/>
<path d="M173.661 224.305C179.253 228.775 184.796 233.732 184.158 241.508C183.913 244.764 182.442 247.583 180.774 250.304C179.008 253.22 177.831 256.379 176.899 259.635C175.967 262.939 175.771 266.39 175.525 269.792C175.28 273.534 175.084 277.373 175.525 281.066C176.31 287.044 178.812 293.264 184.355 296.277C187.101 297.784 191.271 298.756 194.361 298.901C201.768 299.339 209.272 300.165 216.728 299.971C222.712 299.825 228.549 297.055 231.149 291.515C233.749 285.926 231.492 280.094 227.617 275.818C226.636 274.749 225.41 273.145 224.086 272.562C223.007 272.076 221.878 271.638 220.848 271.055C216.924 268.771 211.823 268.625 207.359 268.771C204.907 268.82 202.503 269.063 200.051 269.16C198.481 269.208 196.029 269.451 194.901 268.139C193.527 266.487 194.655 263.182 195.195 261.433C195.98 259.1 197.108 256.865 198.04 254.629C199.953 250.061 201.473 245.396 202.798 240.682C204.22 235.579 204.024 230.039 203.337 224.839C203.092 223.041 201.817 221.049 200.983 219.445C199.855 217.307 198.579 214.682 196.078 214.002C193.821 213.37 193.184 216.966 195.44 217.598C196.078 217.792 197.5 220.66 197.991 221.632C198.628 222.944 199.217 224.256 199.757 225.617C200.296 226.977 200.1 229.261 200.149 230.719C200.247 232.663 200.1 234.607 199.855 236.502C199.364 240.439 197.991 244.327 196.617 248.069C194.508 253.949 190.535 259.926 190.633 266.341C190.731 272.367 196.519 272.853 201.277 272.707C205.054 272.562 208.88 272.076 212.657 272.513C215.747 272.853 218.2 274.02 220.996 275.235C226.293 277.616 229.874 284.468 227.716 289.96C224.822 297.346 215.159 296.472 208.831 296.131C202.994 295.84 196.912 295.937 191.271 294.576C189.407 294.139 187.592 293.75 185.826 292.924C182.196 291.223 180.627 287.092 179.597 283.496C178.419 279.268 178.714 274.651 179.008 270.326C179.253 266.244 179.646 262.21 180.97 258.323C182.147 254.678 184.256 251.665 185.924 248.263C187.445 245.25 187.886 241.654 187.69 238.349C187.15 230.914 181.362 225.762 175.918 221.389C174.201 220.028 171.798 222.847 173.661 224.305Z" fill="black"/>
<path d="M187.052 38.8076C198.039 41.7721 209.272 44.5421 218.984 50.3738C228.059 55.8653 234.484 63.7381 238.261 73.166C242.136 83.2742 242.872 94.5974 242.48 105.289C242.43 115.591 240.321 125.797 239.389 135.954C238.555 145.041 237.329 152.088 235.858 160.836L234.926 166.181C234.141 170.895 232.375 175.22 230.658 179.497C226.832 188.973 223.35 199.13 217.709 207.829C213.049 214.973 205.544 221.825 196.96 224.741L191.565 226.248C184.06 227.414 176.555 226.782 168.707 227.22C163.311 227.414 157.719 227.317 152.226 226.393C148.4 225.956 144.917 224.936 141.042 224.741C135.058 224.158 129.564 221.922 123.727 220.27C120.195 219.444 116.222 218.569 112.74 217.306C109.748 216.139 105.284 213.855 103.224 211.717L99.594 208.704C96.0133 205.448 92.6779 202.046 90.4706 197.915C88.3123 193.396 87.2331 188.342 86.5955 183.433C85.7126 177.116 85.0749 170.895 84.241 164.383C83.5543 158.551 83.5544 152.866 83.1129 146.84C82.6224 141.251 83.211 136.294 84.3882 130.802C86.4483 121.715 88.7538 112.676 90.5687 103.539L91.6478 97.1244C91.6478 97.1244 91.5987 97.5618 92.1383 97.2216C94.8851 84.0518 98.2697 70.1529 106.657 58.3924C116.369 44.6393 132.115 38.1273 149.92 36.7179C160.27 36.2806 170.816 37.2039 181.509 37.6899L187.052 38.8076Z" fill="#8A99A6"/>
<path d="M225.312 172.451C228.01 175.124 231.051 177.36 234.436 179.06C238.752 180.907 243.363 181.004 247.826 181.976C254.693 183.337 262.1 184.649 268.771 181.685L274.461 179.012C280.2 175.61 285.645 172.111 290.795 167.932C300.262 159.864 308.061 149.999 312.868 138.968C314.977 133.816 317.086 127.401 315.37 121.618C313.996 116.759 310.268 115.106 305.461 113.211C305.461 113.211 301.145 113.211 299.183 114.912C294.082 119.334 289.373 123.805 285.252 129.054C278.679 137.364 273.48 147.715 262.247 152.186C257.539 154.033 252.29 154.665 247.091 153.79C242.136 152.721 238.114 150.534 233.896 148.25" fill="#8A99A6"/>
<path d="M103.273 156.608C94.297 153.352 85.9583 149.513 77.4235 145.188C70.0168 141.3 62.6591 137.412 54.9581 133.913C47.6985 130.706 41.5181 126.818 36.4168 121.132C28.7649 113.016 22.2902 102.471 20.4263 92.0708C19.7886 87.3569 21.162 83.1289 22.2902 78.5608C23.4674 73.7011 26.018 70.2021 30.5798 68.7441C30.5798 68.7441 35.0434 68.9385 37.6922 70.6394C42.7935 73.8955 45.8346 77.929 48.5815 83.2261C51.1812 88.0373 52.6527 93.5773 54.7128 98.5343C56.9692 103.734 60.3047 108.497 65.0626 112.142C69.3791 115.495 75.069 117.779 80.6609 117.876C85.5169 118.022 89.7353 116.321 93.7574 114.183" fill="#8A99A6"/>
<path d="M160.271 75.4983C162.331 76.8591 164.489 78.4142 165.764 80.5039C167.138 82.7879 167.53 85.3636 167.432 87.7935C167.383 92.7504 165.323 97.2213 162.478 101.449L159.535 105.337C156.984 107.961 154.483 110.197 150.951 111.801C149.185 112.675 147.321 113.064 145.457 113.501C143.74 113.939 142.073 114.23 140.209 113.793L136.039 112.384C132.115 108.642 128.731 104.851 127.799 99.6998C126.965 95.1803 127.848 90.0289 130.153 86.044C131.331 83.9057 132.998 81.816 134.47 79.8721L137.02 77.2478C139.277 74.575 142.71 72.4853 146.291 71.5133C150.411 70.2984 154.041 71.9507 157.377 74.1376L160.271 75.4983Z" fill="white"/>
<path d="M214.423 92.9951C212.461 87.2607 209.91 81.5262 203.533 78.7076C200.983 77.5412 197.942 77.0552 194.949 77.3954C192.252 77.9786 189.946 79.1935 187.592 80.4085L184.845 82.158C181.46 84.7822 179.106 88.0868 178.223 92.3148C177.487 96.5913 178.223 100.965 178.763 105.144L180.676 109.178C181.117 110.296 182.588 111.608 183.569 112.531C184.551 113.406 184.943 114.086 186.022 114.864C187.199 115.739 187.984 116.662 189.21 117.148C190.437 117.488 191.467 117.828 192.693 118.168L198.432 118.411C208.291 115.982 213 107.574 214.962 99.1184L214.423 92.9951Z" fill="white"/>
<path d="M156.493 80.5042C154.139 83.663 152.569 87.2593 152.471 91.7788C152.422 95.9582 153.795 100.089 157.18 99.0198C163.164 97.4647 168.069 86.3359 163.851 80.1154C161.055 76.422 157.965 81.0388 155.561 84.1976" fill="#161511"/>
<path d="M184.894 83.8086C182.147 85.6067 180.479 88.6683 179.891 93.0907C179.351 97.2215 179.842 103.199 182.883 104.268C187.69 105.92 192.693 94.4028 192.055 88.4253C191.369 83.517 187.052 85.6067 184.501 86.2871" fill="#161511"/>
<path d="M125.297 186.107C126.965 181.976 128.338 177.846 130.006 173.861C130.889 171.674 131.722 169.487 133.047 167.64C133.734 166.571 134.764 165.162 136.382 165.405C137.805 165.793 138.786 167.543 139.374 168.709C140.355 170.653 140.797 172.743 141.287 174.735C142.072 177.651 142.219 180.616 142.219 183.531C142.318 186.642 142.759 189.752 143.2 192.911" fill="white"/>
<path d="M168.56 192.716C169.786 190.286 171.012 187.856 172.14 185.281C173.514 182.122 174.887 178.72 176.849 175.853C177.928 174.298 179.988 171.868 182.147 173.374C184.501 174.929 185.335 178.477 185.727 180.858C186.414 184.357 186.659 187.759 186.561 191.258" fill="white"/>
<path d="M227.519 61.5533C231.394 58.3459 235.416 55.0413 237.673 50.4245C238.85 47.9947 238.948 45.2732 239.193 42.649C239.488 39.9275 239.782 37.1575 239.586 34.436C239.144 29.1389 236.054 24.0362 234.141 19.1765C233.062 16.3578 231.639 14.4625 229.824 12.0813C228.892 10.8177 226.783 11.2065 226.489 12.8102C226.244 14.171 225.508 15.6289 225.067 16.941C224.429 18.9335 223.84 20.8774 223.055 22.8213C221.633 26.4661 219.622 29.8679 217.464 33.1725C215.453 36.2341 213.294 39.2958 210.842 42.0172C208.242 44.9331 204.858 46.391 201.081 47.1685C199.119 47.5573 198.775 50.4246 200.934 50.7647C200.983 50.7647 201.032 50.7648 201.081 50.8134C203.435 51.2021 204.024 47.6059 201.718 47.2171C201.669 47.2171 201.62 47.2171 201.571 47.1685C201.522 48.3835 201.473 49.5984 201.424 50.7647C204.858 50.0844 208.095 49.0152 210.94 46.9256C214.373 44.3985 216.924 40.4135 219.279 36.9631C221.829 33.2211 224.184 29.3333 225.998 25.1539C226.93 22.9671 227.617 20.7316 228.304 18.4961C228.844 16.8438 229.726 15.1429 230.021 13.3934C228.893 13.6364 227.813 13.8794 226.685 14.1224C227.764 15.5317 229.236 16.9896 229.874 18.6419C231.737 23.4044 234.386 28.2156 235.514 33.1725C236.054 35.5052 235.809 37.8378 235.612 40.1705C235.416 42.4546 235.269 44.7873 234.828 47.0227C233.847 51.8825 228.892 55.5273 225.263 58.4917C223.595 60.0468 225.704 63.0599 227.519 61.5533Z" fill="black"/>
<path d="M154.09 40.655C150.607 33.0252 151.441 25.0553 153.648 17.1825C154.237 15.0442 155.022 12.9545 155.807 10.9134C156.297 9.64986 156.69 7.99754 157.474 6.9284C158.406 5.61627 159.387 4.30415 160.319 2.99202C161.153 1.82568 160.467 -0.263995 158.75 0.0275896C154.63 0.707953 150.509 1.1939 146.536 2.55463C140.895 4.44993 136.285 8.19195 132.164 12.3227C127.799 16.7451 124.905 21.7992 123.826 27.9225C122.746 34.0944 123.629 40.412 125.15 46.3895C125.739 48.6736 129.172 47.3615 128.584 45.126C127.21 39.6831 126.621 34.0944 127.455 28.5542C128.338 22.674 131.478 18.203 135.598 14.0722C139.277 10.3302 143.544 7.41439 148.547 5.76208C151.932 4.64434 155.562 4.30415 159.093 3.72098C158.554 2.74903 158.014 1.7285 157.524 0.756551C156.543 2.11728 155.512 3.5266 154.531 4.88733C152.373 7.90037 151.343 12.3713 150.264 15.8703C147.615 24.5207 146.83 33.7542 150.656 42.1129C151.588 44.0568 155.022 42.7933 154.09 40.655Z" fill="black"/>
<path d="M101.851 169.048C105.873 177.553 112.691 183.676 120.834 188.293C125.739 191.063 130.938 193.541 136.383 195.096C141.877 196.7 147.91 197.283 153.6 197.818C154.875 197.915 156.003 197.769 157.279 197.672C159.241 197.429 161.203 197.478 163.165 197.38C168.806 197.089 174.447 196.36 179.989 195.436C185.14 194.61 189.898 193.25 194.214 190.285C198.825 187.078 202.7 182.85 207.016 179.302C208.831 177.796 206.722 174.831 204.907 176.338C200.983 179.545 197.353 183.141 193.429 186.349C189.358 189.605 184.747 190.965 179.646 191.84C171.405 193.25 163.165 193.347 154.875 194.27C152.913 194.464 150.608 193.833 148.695 193.59C145.948 193.201 143.152 192.958 140.454 192.423C135.304 191.5 130.301 189.119 125.69 186.786C117.155 182.461 109.454 176.581 105.334 167.784C104.304 165.646 100.87 166.91 101.851 169.048Z" fill="black"/>
<path d="M170.522 43.0353C168.461 35.2111 146.977 46.5343 149.479 57.4687C152.275 52.6576 158.455 50.6651 164.292 50.7623C150.656 53.2894 167.824 67.1882 171.699 70.0069C168.51 62.8631 171.454 57.2257 174.053 50.6651C173.416 54.5043 176.996 59.0724 180.626 60.579C180.283 56.9828 179.988 52.9978 180.626 49.1586C186.855 49.7903 184.894 55.5734 188.082 56.9827C191.663 58.9266 193.428 57.0314 192.84 52.0744C192.496 45.4166 183.52 38.1756 176.604 41.4316" fill="#191713"/>
<path d="M302.224 223.77C306.639 216.189 320.618 196.167 306.001 191.453C305.314 191.21 304.088 191.064 303.744 190.286C303.058 188.78 304.186 186.204 304.578 184.746C306.099 179.692 306.786 174.784 306.737 169.487C306.688 163.072 307.423 157.24 308.797 150.971C310.121 144.799 311.249 138.627 310.661 132.31C310.514 130.755 308.061 130.998 308.208 132.553C309.336 144.556 303.843 155.928 304.235 167.98C304.431 173.326 303.941 178.332 302.42 183.483C301.684 185.913 299.918 190.141 302.175 192.328C303.646 193.737 306.001 193.785 307.669 194.952C310.71 197.139 310.072 200.881 309.287 203.991C307.521 210.746 303.45 216.772 299.968 222.75C299.183 224.062 301.439 225.082 302.224 223.77Z" fill="#191713"/>
<path d="M27.146 94.988C27.8327 95.717 28.0289 97.1748 28.2251 98.0982C28.6175 100.042 28.8137 102.083 28.9609 104.076C29.3042 108.741 29.2552 113.406 29.01 118.072C28.8628 121.328 28.7646 124.973 27.5874 128.083C25.8216 132.7 19.9845 134.546 17.2867 138.58C14.4908 142.808 16.7473 147.182 19.347 150.826C22.9767 155.929 26.3612 160.983 25.0859 167.641C24.5954 170.168 22.7314 172.209 22.9276 174.931C23.1238 177.555 24.5463 179.693 26.6064 181.297C30.2362 184.116 36.1224 183.921 37.8391 179.061C38.7221 176.486 37.1524 173.862 37.692 171.286C38.0844 169.488 38.3296 168.078 38.2806 166.232C38.0353 159.282 35.5337 152.527 34.6017 145.675C33.6698 138.92 34.9941 133.186 38.0353 127.159C40.7331 121.717 44.1667 116.517 47.9927 111.754C48.9737 110.539 47.1097 108.984 46.1287 110.199C42.7932 114.427 39.8011 118.898 37.1524 123.612C34.5527 128.277 32.3454 133.234 31.9039 138.58C31.3644 144.995 33.1302 151.312 34.5037 157.484C35.1413 160.449 35.6809 163.462 35.8771 166.523C36.0243 168.564 35.2885 170.265 35.1413 172.258C34.8961 175.174 36.9563 178.138 34.0622 180.325C31.1192 182.56 26.8027 178.867 25.7236 176.34C24.5464 173.667 26.9007 170.654 27.5874 168.127C28.3232 165.26 27.7836 162.15 26.9988 159.331C25.5273 153.937 21.1617 150.438 19.0035 145.432C16.6 139.795 23.32 136.442 26.7536 133.283C32.1492 128.374 31.5606 119.918 31.6587 113.261C31.7568 108.984 31.6097 104.707 31.1192 100.431C30.8249 98.0496 30.5306 94.988 28.7647 93.1413C27.6365 91.9749 26.0669 93.8217 27.146 94.988Z" fill="#191713"/>
<path d="M300.164 222.602C298.006 226.636 300.605 230.815 301.488 234.8C302.028 237.133 301.733 239.757 299.771 241.361C298.104 242.722 295.504 242.867 293.444 242.722C291.384 242.576 289.275 241.993 287.656 240.729C286.086 239.514 285.988 237.619 285.694 235.869C285.35 234.023 285.939 232.03 285.89 230.135C285.841 228.385 284.909 225.761 283.536 224.595C281.917 223.234 279.464 223.04 278.974 220.707C278.287 217.402 280.691 217.548 282.996 217.208C286.871 216.576 289.324 213.028 290.354 209.578C292.561 202.288 293.689 194.659 295.308 187.223C296.779 180.614 298.643 174.199 300.703 167.784C302.714 161.612 309.484 128.42 295.014 132.794C293.493 133.232 294.376 135.516 295.896 135.078C305.805 132.065 299.919 162.439 298.447 166.91C296.436 173.179 294.572 179.448 293.1 185.911C291.384 193.444 290.256 201.122 288.097 208.558C287.411 210.89 286.675 212.251 284.713 213.757C283.045 215.07 281.181 214.827 279.219 215.313C275.246 216.285 275.982 222.408 278.434 224.449C279.219 225.081 280.2 225.421 281.083 225.858C282.456 226.539 283.143 228.482 283.339 229.94C283.732 232.273 282.898 234.606 283.339 236.987C283.683 238.834 283.977 240.583 285.35 241.993C287.116 243.742 289.52 244.568 291.923 245.006C296.681 245.783 302.077 244.422 303.695 239.417C304.48 236.987 303.892 234.411 303.156 232.079C302.322 229.357 300.752 226.344 302.224 223.574C303.156 222.262 300.9 221.241 300.164 222.602Z" fill="#191713"/>
<path fill-rule="evenodd" clip-rule="evenodd" d="M7.15515 374.872C2.1672 388.001 3.16479 406.739 0.0888836 424.984C-0.576177 428.682 2.58286 432.072 6.49009 432.072C10.2311 432.072 14.0552 431.949 17.7961 431.394C19.0431 431.209 20.2901 429.853 20.9552 428.744C21.6202 427.572 21.7865 426.031 21.7034 424.675C21.2877 417.525 22.4515 410.56 23.6985 403.534C25.5275 393.795 28.6034 384.118 26.8576 374.009C29.5178 362.36 30.7648 350.464 37.7479 339.862C41.2395 334.561 42.2371 327.658 46.0612 322.604C49.8853 317.549 55.954 313.913 60.9419 309.536C63.6853 307.071 65.6805 303.804 68.6733 301.708C77.5684 295.36 85.3829 287.039 97.9359 286.73C114.729 280.443 132.187 280.628 149.728 282.416C158.041 283.279 166.437 283.71 174.667 285.128C182.149 286.422 189.382 288.641 196.697 290.737C201.02 291.97 205.094 294.127 209.417 295.236C227.955 299.983 241.755 310.769 253.061 324.576C264.7 338.753 274.593 353.792 278.5 371.729C280.163 379.31 284.07 386.46 283.987 394.473C283.987 401.5 284.319 408.526 284.319 415.553C284.319 418.635 285.067 421.409 287.894 422.826C290.637 424.121 293.796 423.689 296.456 421.778C298.202 420.484 300.364 419.375 299.948 416.847C295.708 388.617 289.473 361.004 274.177 335.856C267.776 325.254 259.878 315.638 251.232 306.701C242.005 297.086 229.867 290.799 217.314 285.436C195.617 276.19 173.005 270.273 149.062 269.287C133.849 268.671 118.47 268.917 103.506 271.321C88.4588 273.725 74.6588 279.026 62.9371 289.442C52.4624 298.811 42.154 308.304 32.6769 318.412C22.0359 329.692 15.0527 343.19 11.1455 357.922C10.3142 361.867 9.3166 366.058 7.15515 374.872Z" fill="#04BFBF"/>
<path d="M43.9827 427.017C45.7284 428.497 48.1393 429.051 49.8851 429.051C50.8827 429.051 51.714 428.928 52.5453 428.62C60.8586 425.476 65.6803 418.943 64.8489 411.978C63.7682 403.225 64.8489 394.966 68.008 386.583C69.6706 382.207 70.5851 377.707 71.5827 373.331C72.1646 370.742 72.6634 368.092 73.4116 365.564C74.4923 361.558 75.9056 357.675 77.5682 353.977C84.1357 338.999 95.3586 329.815 110.904 326.671C121.961 324.452 131.771 323.404 140.666 323.404C155.713 323.404 168.931 326.486 181.068 332.773L181.733 333.143L182.482 333.266C189.215 334.129 195.284 337.211 201.519 343.005C203.182 344.546 204.844 346.025 206.507 347.505C213.573 353.853 220.224 359.894 225.295 367.537C234.523 381.22 239.51 394.966 240.425 409.512C240.674 413.58 241.672 417.587 243.418 421.1C244.914 424.182 248.988 425.353 252.23 425.784L252.562 425.846H252.978C256.553 425.846 259.047 421.963 259.629 420.175C262.289 412.224 261.042 404.458 259.795 399.28C255.721 381.652 249.32 361.25 232.86 343.868L232.61 343.56C225.71 336.287 218.561 328.705 209.832 322.418C190.712 308.488 168.931 301.77 143.077 301.77C140.915 301.77 138.671 301.831 136.426 301.954C133.433 302.078 130.441 302.448 127.614 302.756C125.12 303.064 122.792 303.31 120.465 303.434C96.6056 304.913 80.8935 318.72 71.0839 329.013C61.1911 339.43 55.2887 349.354 52.5453 360.079C50.9658 366.489 48.8044 372.899 47.308 377.584C46.726 379.433 46.1441 381.097 45.7284 382.392L45.6453 382.761L44.3983 389.172C42.32 399.835 40.7405 408.094 39.161 416.292C38.1634 421.778 42.2369 425.476 43.9827 427.017Z" fill="#F20C60"/>
<path fill-rule="evenodd" clip-rule="evenodd" d="M201.02 424.675C198.027 418.141 195.367 411.484 193.122 404.766C189.548 394.164 183.812 384.61 174.916 376.597C164.608 367.352 152.969 360.756 137.424 362.174C134.182 362.482 130.773 361.866 127.531 361.989C122.377 362.174 117.971 364.023 114.729 367.352C110.988 371.112 107.995 375.18 106.498 380.111C103.339 390.404 101.012 400.759 100.18 411.423C99.9309 414.196 99.0996 425.414 99.2658 428.188C93.696 428.003 88.2092 427.818 82.7225 427.633C82.1405 427.572 81.5586 427.572 80.9767 427.51C79.3972 424.49 78.0671 421.1 78.2333 417.956C78.4827 411.607 79.9791 405.32 80.8104 400.266C83.3875 388.493 87.461 378.57 92.449 368.893C94.5273 364.948 97.4369 361.681 101.261 358.969C114.895 349.353 122.044 347.135 139.585 347.566C153.302 347.874 165.689 351.634 176.413 359.585C199.441 376.721 210.747 398.109 212.742 422.826C208.668 423.442 204.844 424.12 201.02 424.675Z" fill="#6CD9C5"/>
<path fill-rule="evenodd" clip-rule="evenodd" d="M164.276 428.373C163.86 427.386 163.445 426.462 163.029 425.537C160.036 418.264 157.459 410.868 154.549 403.594C153.718 401.684 152.139 400.019 150.642 398.417C146.402 393.794 137.757 395.027 136.011 400.697C134.265 406.122 133.184 411.669 131.189 419.743C131.023 420.606 130.69 424.181 129.776 427.571C129.693 427.941 129.526 428.249 129.36 428.619C124.622 428.496 119.8 428.311 115.061 428.065C113.316 412.963 118.054 399.465 127.947 387.26C134.93 378.693 150.31 378.385 158.373 386.582C160.951 389.171 163.278 392.068 165.107 395.15C171.259 405.32 175.249 416.23 178.076 427.448C173.42 427.818 168.848 428.188 164.276 428.373Z" fill="#F2F2F2"/>
</svg>
