<svg width="300" height="348" viewBox="0 0 300 348" fill="none" xmlns="http://www.w3.org/2000/svg">
<path fill-rule="evenodd" clip-rule="evenodd" d="M42.7078 302.449C43.2326 302.511 43.8885 302.758 44.3476 303.251C44.6756 303.621 45.0692 303.99 45.4627 304.422C45.9219 304.977 46.3154 305.655 46.2499 306.394C46.2499 306.826 46.3154 307.196 46.381 307.627C46.709 308.798 46.1842 309.661 45.3971 310.401C44.61 311.202 42.7734 311.51 41.7895 310.647C41.5271 310.462 41.2648 310.277 41.068 310.031C40.5432 309.168 39.6905 309.106 38.7722 309.291C38.313 309.353 37.9195 308.983 37.9851 308.552C38.1163 307.689 38.0507 306.949 37.7227 306.148C37.5259 305.531 37.7227 304.915 38.1163 304.36C39.1658 302.819 40.6088 302.08 42.7078 302.449Z" fill="#E9E2D8"/>
<path fill-rule="evenodd" clip-rule="evenodd" d="M25.3911 310.522C25.5879 309.474 25.9815 308.92 26.6374 308.365C27.2933 307.872 27.6869 307.071 28.2772 306.454C28.6708 306.023 29.2611 306.023 29.7859 306.331C30.4418 306.701 31.0322 307.194 31.2945 307.872C31.8849 309.29 32.344 310.769 32.8688 312.248C33.1312 312.926 32.8032 313.481 32.2128 313.851C31.6225 314.282 30.9666 314.714 30.245 314.96C29.2611 315.33 28.3428 315.268 27.4901 314.652C27.4245 314.59 27.3589 314.529 27.2277 314.467C25.5223 313.419 24.9976 312.002 25.3911 310.522Z" fill="#E9E2D8"/>
<path fill-rule="evenodd" clip-rule="evenodd" d="M66.7149 298.997C66.3214 298.874 65.5998 298.813 65.0751 298.504C63.1073 297.518 61.9266 295.977 61.7954 293.882C61.7954 293.388 61.7954 292.834 61.7954 292.341C61.9266 291.108 63.4353 290.183 64.6815 290.553C65.7966 290.861 66.7149 291.416 67.1741 292.464C67.83 294.128 68.5515 295.731 68.8139 297.456C68.8795 298.381 67.8956 299.182 66.7149 298.997Z" fill="#E9E2D8"/>
<path fill-rule="evenodd" clip-rule="evenodd" d="M64.0914 311.263C62.4515 310.893 61.5332 309.784 61.402 308.305C61.3365 307.75 61.402 307.195 61.7956 306.825C62.4515 306.209 62.9107 305.531 63.3698 304.853C63.6978 304.36 64.2225 304.113 64.7473 304.113C66.3215 304.175 67.7646 304.606 68.6829 305.962C68.8797 306.332 69.0765 306.702 69.2077 307.072C69.6012 308.243 69.142 309.722 68.027 310.339C66.9775 310.893 65.7968 311.263 64.5505 311.263C64.3537 311.325 64.0914 311.263 64.0914 311.263Z" fill="#E9E2D8"/>
<path fill-rule="evenodd" clip-rule="evenodd" d="M13.2562 308.18C11.4196 308.18 10.3045 307.132 9.38624 305.776C8.7303 304.851 8.92709 303.434 9.8454 302.694C10.5669 302.078 11.3541 301.523 12.2068 301.03C12.7315 300.66 13.453 300.783 14.0434 301.153C15.552 302.201 16.4047 303.557 16.4047 305.345C16.4047 306.701 15.7488 307.687 14.5681 308.365C14.109 308.55 13.7154 308.365 13.2562 308.18Z" fill="#E9E2D8"/>
<path fill-rule="evenodd" clip-rule="evenodd" d="M103.054 305.099C103.054 304.606 103.054 304.112 103.119 303.558C103.185 302.571 104.497 301.77 105.546 302.202C106.727 302.695 107.908 303.249 109.023 303.989C110.203 304.729 110.597 305.9 110.531 307.256C110.466 307.934 110.072 308.427 109.416 308.612C107.448 309.228 105.546 308.982 103.578 308.489C103.054 308.365 102.594 307.564 102.66 307.009C102.726 306.701 102.791 306.393 102.857 306.085C102.857 305.715 102.922 305.407 103.054 305.099ZM107.908 304.914C107.908 304.852 107.908 304.729 107.842 304.667C107.776 304.606 107.645 304.606 107.58 304.667C107.383 304.79 107.448 304.914 107.711 304.975C107.776 305.037 107.842 304.975 107.908 304.914Z" fill="#E9E2D8"/>
<path fill-rule="evenodd" clip-rule="evenodd" d="M74.5207 284.388C75.9638 284.634 77.538 285.374 78.9154 286.36C79.5714 286.853 79.8337 287.408 79.8337 288.209C79.7681 289.504 79.2434 290.182 77.9971 290.367C76.6853 290.552 75.439 290.737 74.1927 290.059C72.3561 289.134 71.4378 287.84 71.6346 285.497C71.6346 285.128 71.897 284.758 72.3561 284.573C72.9464 284.326 73.5368 284.141 74.5207 284.388Z" fill="#E9E2D8"/>
<path fill-rule="evenodd" clip-rule="evenodd" d="M80.6207 299.12C80.6863 298.812 80.6863 298.504 80.7519 298.196C81.0798 296.963 82.8509 296.223 83.966 296.963C85.6714 298.073 87.18 299.429 88.164 301.278C88.5575 302.017 88.2951 303.004 87.4424 303.435C87.18 303.62 86.8521 303.743 86.5241 303.805C85.8682 303.866 85.2122 303.866 84.5563 303.866C83.7692 303.866 83.0476 303.558 82.4573 303.065C82.0637 302.695 81.6702 302.387 81.2766 302.017C80.6863 301.463 80.4239 300.846 80.5551 300.045C80.5551 299.737 80.6207 299.429 80.6207 299.12C80.6863 299.12 80.6207 299.12 80.6207 299.12Z" fill="#E9E2D8"/>
<path fill-rule="evenodd" clip-rule="evenodd" d="M52.0218 333.637C51.8251 334.808 51.2347 335.424 49.9229 335.671C49.4637 335.733 49.0701 335.856 48.611 335.856C48.283 335.856 47.8895 335.856 47.6271 335.733C46.7088 335.178 45.7905 334.623 44.9377 334.007C44.8066 333.945 44.8066 333.575 44.9377 333.452C45.5281 332.774 45.8561 332.096 45.5937 331.171C45.4625 330.678 46.1184 330.308 46.4464 329.939C46.7744 329.507 47.1679 329.199 47.7583 329.076C48.4142 328.952 49.0701 328.706 49.7261 329.014C50.5132 329.384 51.3003 329.877 51.6283 330.678C51.9562 331.603 52.2842 332.589 52.0218 333.637Z" fill="#E9E2D8"/>
<path fill-rule="evenodd" clip-rule="evenodd" d="M64.8125 330C65.1405 330.062 65.4684 330.062 65.7964 330.124C67.1083 330.309 67.633 330.863 67.961 332.096C68.289 333.267 68.0922 334.315 67.3051 335.301C66.5835 336.226 65.534 336.596 64.4189 336.226C62.2543 335.548 60.8113 334.253 60.5489 332.035C60.4833 331.48 60.6801 331.048 61.1393 330.617C61.7952 330 62.6479 329.754 63.5006 329.754C63.8942 329.877 64.3533 330 64.8125 330C64.8125 330.062 64.8125 330.062 64.8125 330Z" fill="#E9E2D8"/>
<path fill-rule="evenodd" clip-rule="evenodd" d="M37.9195 337.705C38.4442 337.829 39.0346 337.89 39.5593 338.014C40.74 338.383 41.7239 339 42.3142 340.109C42.5766 340.664 42.9046 341.219 43.1014 341.773C43.5605 342.945 42.7734 344.362 41.4615 344.67C40.74 344.855 39.9529 344.979 39.2313 345.102C39.1002 345.102 38.8378 344.917 38.7722 344.732C38.641 344.485 38.5754 344.177 38.5754 343.869C38.641 343.253 38.641 342.76 37.9195 342.266C36.7388 341.527 35.8861 340.417 35.4269 339.061C35.1645 338.322 35.8205 337.582 36.6076 337.582C37.0668 337.644 37.5259 337.705 37.9195 337.705Z" fill="#E9E2D8"/>
<path fill-rule="evenodd" clip-rule="evenodd" d="M57.5321 277.485C59.6311 277.794 61.0741 279.211 61.9269 281.307C62.058 281.738 61.8613 282.478 61.4677 282.725C61.0741 282.971 60.7462 283.218 60.3526 283.341C59.6967 283.526 59.0408 283.587 58.3848 283.711C57.1385 283.834 55.9579 283.156 55.4331 282.17C55.0395 281.43 54.8428 280.629 54.8428 279.766C54.8428 279.334 54.974 278.965 55.1051 278.595C55.4331 277.732 56.2858 277.239 57.5321 277.485Z" fill="#E9E2D8"/>
<path fill-rule="evenodd" clip-rule="evenodd" d="M61.9924 321.555C61.8612 321.74 61.7956 321.925 61.5989 322.048C60.2214 322.726 58.8439 323.281 57.5321 324.082C56.8761 324.452 55.8266 323.897 55.6954 323.281C55.5643 322.233 55.3675 321.247 55.1707 320.261C54.9739 319.213 55.4987 318.473 56.3514 317.919C57.0729 317.487 57.7944 317.425 58.516 317.857C58.7783 317.98 59.1063 318.165 59.3031 318.412C59.7622 319.151 60.287 319.028 60.9429 318.781C61.0741 318.72 61.4677 318.843 61.4677 318.966C61.6644 319.768 61.7956 320.569 61.9924 321.37C62.1236 321.37 62.058 321.432 61.9924 321.555Z" fill="#E9E2D8"/>
<path fill-rule="evenodd" clip-rule="evenodd" d="M70.7815 317.674C70.7815 317.551 70.8471 317.242 70.9127 316.934C70.9783 316.749 71.1095 316.564 71.2406 316.441C72.0934 315.886 73.0116 315.64 73.9955 316.071C75.045 316.503 75.8978 317.119 76.1601 318.229C76.3569 319.03 76.6193 319.831 76.7505 320.632C76.8817 321.187 76.3569 321.865 75.7666 322.05C75.6354 322.05 75.5698 322.112 75.4386 322.112C74.0611 322.235 72.8149 321.989 71.7654 321.187C70.8471 320.509 70.2567 319.708 70.6503 318.537C70.7815 318.229 70.7159 318.044 70.7815 317.674Z" fill="#E9E2D8"/>
<path fill-rule="evenodd" clip-rule="evenodd" d="M97.8716 310.091C98.8555 310.214 99.9051 310.831 100.43 312.125C100.955 313.234 100.692 314.221 99.5771 314.775C98.0028 315.515 96.4286 315.577 94.9199 314.529C93.6737 313.666 93.3457 312.31 94.1328 310.954C94.4608 310.399 94.9855 310.029 95.7071 310.029C96.2974 310.029 96.8221 310.029 97.8716 310.091Z" fill="#E9E2D8"/>
<path fill-rule="evenodd" clip-rule="evenodd" d="M18.0447 317.488C18.307 317.673 18.7006 317.796 18.963 318.105C19.5533 318.844 19.8157 319.769 19.7501 320.755C19.7501 320.94 19.6845 321.187 19.6189 321.371C19.2254 322.358 18.635 323.221 17.7167 323.837C17.4543 323.96 16.9952 324.022 16.7984 323.899C15.9457 323.282 15.0274 322.728 14.1091 322.173C13.8467 322.049 13.6499 321.68 13.6499 321.433C13.6499 320.693 13.7811 320.015 13.9779 319.276C14.0435 318.968 14.2403 318.659 14.5026 318.536C15.2898 317.981 16.2736 317.673 17.2575 317.488C17.3887 317.488 17.6511 317.488 18.0447 317.488Z" fill="#E9E2D8"/>
<path fill-rule="evenodd" clip-rule="evenodd" d="M56.1543 343.808C56.8102 342.883 56.679 341.65 57.8597 340.911C58.5812 340.479 59.1716 340.233 59.8931 340.849C60.1555 341.034 60.4179 341.28 60.7458 341.342C62.3201 341.589 62.7792 342.76 63.1728 343.931C63.304 344.362 63.1728 344.732 62.9104 345.04C62.7136 345.287 62.4513 345.472 62.1889 345.657C60.2867 347.013 58.1221 346.704 56.8102 344.917C56.5479 344.609 56.3511 344.177 56.1543 343.808Z" fill="#E9E2D8"/>
<path fill-rule="evenodd" clip-rule="evenodd" d="M92.1653 339.123C91.7717 339 91.3782 338.815 90.9846 338.63C90.7878 338.568 90.5911 338.322 90.5911 338.198C90.7878 337.15 90.3287 336.164 90.1975 335.116C90.1319 334.685 90.3287 334.253 90.7222 334.007C91.3782 333.575 92.0341 333.267 92.69 332.897C93.018 332.712 93.6739 332.897 93.9363 333.144C94.3954 333.637 94.8546 334.069 95.1826 334.562C95.5761 335.178 95.9697 335.794 96.2321 336.472C96.3632 336.842 96.2977 337.274 96.2321 337.705C96.2321 337.89 96.1009 338.137 95.9041 338.198C94.8546 338.938 93.6083 339.308 92.1653 339.123Z" fill="#E9E2D8"/>
<path fill-rule="evenodd" clip-rule="evenodd" d="M20.7996 286.793C20.406 286.669 20.0125 286.485 19.6189 286.3C19.4221 286.238 19.2253 285.991 19.2253 285.868C19.4221 284.82 18.963 283.834 18.8318 282.786C18.7662 282.355 18.963 281.923 19.3565 281.677C20.0125 281.245 20.6684 280.937 21.3243 280.567C21.6523 280.382 22.3082 280.567 22.5706 280.814C23.0298 281.245 23.4889 281.738 23.8169 282.232C24.2104 282.848 24.604 283.464 24.8664 284.142C24.9976 284.512 24.932 284.944 24.8664 285.375C24.8664 285.56 24.7352 285.807 24.5384 285.868C23.4889 286.608 22.2426 287.039 20.7996 286.793Z" fill="#E9E2D8"/>
<path fill-rule="evenodd" clip-rule="evenodd" d="M80.8829 334.993C78.7183 334.685 77.2752 333.637 76.5537 331.665C76.3569 331.11 76.0946 330.493 75.9634 329.939C75.9634 329.815 76.1602 329.631 76.2913 329.446C76.3569 329.384 76.4881 329.384 76.6193 329.384C77.6032 329.754 78.5871 329.631 79.5054 329.322C80.2926 329.137 80.7517 329.446 81.2765 329.877C82.326 330.863 83.0475 331.911 83.1131 333.39C83.1787 334.315 82.5227 335.055 81.5388 334.993C81.2765 335.055 81.0797 335.055 80.8829 334.993Z" fill="#E9E2D8"/>
<path fill-rule="evenodd" clip-rule="evenodd" d="M68.9449 275.513C68.8137 275.698 68.7481 275.944 68.6169 276.006C67.3707 276.807 66.0588 277.115 64.6157 276.992C64.091 276.931 63.5007 276.746 63.2383 276.253C62.7791 275.205 62.32 274.219 61.9264 273.171C61.664 272.554 61.9264 271.938 62.32 271.445C62.6479 271.013 63.3695 270.828 63.763 271.198C64.4845 271.876 65.2061 272.431 66.2556 272.493C67.3707 272.554 68.0266 273.171 68.4858 274.095C68.7481 274.527 69.0105 274.958 68.9449 275.513Z" fill="#E9E2D8"/>
<path fill-rule="evenodd" clip-rule="evenodd" d="M89.5415 294.62C89.6071 293.819 90.263 293.387 90.7222 293.634C92.362 294.435 94.0674 295.175 95.6417 296.038C96.1008 296.284 96.4944 296.716 96.7568 297.147C97.4127 298.133 97.1503 298.873 95.8385 299.243C94.789 299.551 93.6739 299.612 92.6244 299.304C91.7061 299.058 91.0501 298.565 90.6566 297.763C90.3286 297.085 90.0006 296.469 89.7383 295.791C89.6071 295.36 89.6071 294.866 89.5415 294.62Z" fill="#E9E2D8"/>
<path fill-rule="evenodd" clip-rule="evenodd" d="M88.4919 318.474C89.1478 318.535 89.607 318.844 89.8694 319.275C90.0662 319.645 90.1973 320.015 90.3941 320.384C90.9189 321.679 90.5909 323.035 90.8533 324.329C90.8533 324.453 90.6565 324.699 90.4597 324.761C89.935 324.884 89.4102 324.884 88.8855 325.007C87.6392 325.192 86.3929 324.391 86.2617 323.281C86.1305 322.172 86.1305 321.062 86.0649 319.953C86.0649 319.768 86.1961 319.583 86.3273 319.398C86.7865 318.659 87.7048 318.35 88.4919 318.474Z" fill="#E9E2D8"/>
<path fill-rule="evenodd" clip-rule="evenodd" d="M106.137 297.148C105.809 297.086 105.612 297.086 105.415 296.963C103.972 296.408 102.726 295.607 101.873 294.313C101.545 293.82 101.742 292.895 102.398 292.833C103.185 292.772 103.775 292.217 104.497 292.094C105.677 291.847 106.661 291.97 107.383 292.957C107.58 293.203 107.711 293.511 107.973 293.696C108.629 294.189 108.826 294.867 108.826 295.607C108.826 295.915 108.957 296.223 109.088 296.47C109.154 296.778 108.957 297.025 108.629 297.025C107.776 297.086 106.924 297.086 106.137 297.148Z" fill="#E9E2D8"/>
<path fill-rule="evenodd" clip-rule="evenodd" d="M31.4914 328.09C31.1635 328.029 30.8355 327.967 30.5075 327.967C29.5236 327.905 28.9333 327.289 28.3429 326.672C27.6214 325.871 27.8838 324.515 28.8021 323.96C29.5892 323.529 30.3763 323.221 31.229 323.097C32.1474 322.974 33.0001 323.344 33.3936 324.145C33.5904 324.515 33.7216 324.885 33.7872 325.316C33.8528 326.056 33.8528 326.734 33.9184 327.474C33.9184 327.844 33.4592 328.337 33.0657 328.275C32.5409 328.213 32.0162 328.152 31.4914 328.09Z" fill="#E9E2D8"/>
<path fill-rule="evenodd" clip-rule="evenodd" d="M102.332 327.351C102.004 327.967 101.61 328.46 100.954 328.707C100.102 329.015 99.249 329.076 98.3963 329.015C97.2156 328.892 96.2317 327.782 96.4285 326.611C96.5597 325.686 96.9533 324.823 97.478 324.084C97.7404 323.714 98.5931 323.467 98.9211 323.591C100.299 324.269 101.545 325.132 102.201 326.488C102.332 326.796 102.266 327.104 102.332 327.351Z" fill="#E9E2D8"/>
<path fill-rule="evenodd" clip-rule="evenodd" d="M105.874 316.07C106.137 316.194 106.399 316.255 106.53 316.44C107.383 317.673 108.432 318.721 109.482 319.707C109.547 319.769 109.613 319.892 109.613 319.953C109.875 320.447 109.547 321.31 109.023 321.494C108.826 321.556 108.629 321.618 108.367 321.679C107.12 321.803 106.399 322.419 105.874 323.405C105.809 323.467 105.612 323.528 105.612 323.528C105.481 323.405 105.349 323.282 105.284 323.159C105.218 323.097 105.218 322.974 105.218 322.85C105.349 321.988 105.284 321.31 104.628 320.57C103.578 319.399 103.906 317.488 105.153 316.379C105.349 316.194 105.677 316.194 105.874 316.07Z" fill="#E9E2D8"/>
<path fill-rule="evenodd" clip-rule="evenodd" d="M77.0132 277.239C77.1444 277.054 77.21 276.808 77.4067 276.746C78.1939 276.438 79.0466 276.192 79.8337 276.007C80.0305 275.945 80.2929 276.007 80.4241 276.13C81.3424 277.178 82.3919 278.041 83.5069 278.842C83.7693 278.965 83.7693 279.705 83.6381 280.013C83.3758 280.444 82.9166 280.814 82.3919 280.938C80.8176 281.307 79.3746 280.999 78.0627 280.075C77.7347 279.828 77.4067 279.458 77.3412 279.088C77.1444 278.472 77.1444 277.856 77.0132 277.239Z" fill="#E9E2D8"/>
<path fill-rule="evenodd" clip-rule="evenodd" d="M22.6359 331.542C22.7015 331.604 22.8326 331.665 22.8982 331.727C23.9477 332.898 24.2101 334.316 24.3413 335.733C24.3413 335.857 24.3413 335.98 24.2757 336.042C24.0789 336.288 23.9477 336.596 23.6854 336.781C22.8327 337.274 21.8487 337.583 20.8648 337.274C20.6025 337.213 20.2089 336.966 20.1433 336.781C19.8153 335.795 19.4874 334.809 19.225 333.823C19.0282 332.96 19.6186 332.097 20.4713 331.85C21.1272 331.665 21.7832 331.604 22.3735 331.48C22.4391 331.48 22.5047 331.542 22.6359 331.542Z" fill="#E9E2D8"/>
<path fill-rule="evenodd" clip-rule="evenodd" d="M27.4901 300.045C25.6535 300.107 24.5384 298.997 23.6201 297.641C22.9642 296.717 23.161 295.299 24.0793 294.559C24.8008 293.943 25.5879 293.388 26.4406 292.895C26.9654 292.525 27.6869 292.649 28.2773 293.018C29.7859 294.066 30.6386 295.422 30.6386 297.21C30.6386 298.566 29.9827 299.552 28.802 300.23C28.3429 300.415 27.9493 300.23 27.4901 300.045Z" fill="#E9E2D8"/>
<path fill-rule="evenodd" clip-rule="evenodd" d="M39.6247 274.465C39.8871 274.65 40.2807 274.773 40.543 275.081C41.1334 275.821 41.3958 276.745 41.3302 277.732C41.3302 277.917 41.2646 278.163 41.199 278.348C40.8054 279.334 40.2151 280.197 39.2968 280.814C39.0344 280.937 38.5753 280.998 38.3785 280.875C37.5258 280.259 36.6074 279.704 35.6891 279.149C35.4268 279.026 35.23 278.656 35.23 278.41C35.23 277.67 35.3612 276.992 35.5579 276.252C35.6235 275.944 35.8203 275.636 36.0827 275.513C36.8698 274.958 37.8537 274.65 38.8376 274.465C39.0344 274.403 39.2312 274.465 39.6247 274.465Z" fill="#E9E2D8"/>
<path fill-rule="evenodd" clip-rule="evenodd" d="M44.2164 288.456C44.282 288.518 44.4132 288.579 44.4788 288.641C45.5283 289.812 45.7907 291.23 45.9219 292.648C45.9219 292.771 45.9219 292.894 45.8563 292.956C45.6595 293.202 45.5283 293.51 45.2659 293.695C44.4132 294.188 43.4293 294.497 42.4454 294.188C42.183 294.127 41.7895 293.88 41.7239 293.695C41.3959 292.709 41.0679 291.723 40.8056 290.737C40.6088 289.874 41.1991 289.011 42.0519 288.764C42.7078 288.579 43.2981 288.518 43.9541 288.395C44.0197 288.395 44.1508 288.456 44.2164 288.456Z" fill="#E9E2D8"/>
<path fill-rule="evenodd" clip-rule="evenodd" d="M73.1432 341.836C73.9304 341.959 74.6519 342.267 74.9142 343.068C75.1766 343.87 75.5046 344.609 75.7014 345.411C75.9637 346.52 74.9798 347.506 73.7992 347.383C71.7658 347.198 69.798 345.226 71.0442 342.822C71.3066 342.082 72.2905 341.651 73.1432 341.836Z" fill="#E9E2D8"/>
<path fill-rule="evenodd" clip-rule="evenodd" d="M93.477 283.587C94.1985 283.772 94.5921 283.772 94.8545 283.895C95.1824 284.018 95.5104 284.142 95.6416 284.388C96.0351 285.005 96.3631 285.683 96.6255 286.299C96.8878 286.915 96.2975 287.84 95.6416 288.025C95.3136 288.148 94.9856 288.21 94.6577 288.21C92.7555 288.087 91.3124 287.224 90.3285 285.744C90.1973 285.498 90.2629 285.313 90.4597 285.19C91.1812 284.696 91.9027 284.265 92.6243 283.772C93.0834 283.525 93.477 283.587 93.477 283.587Z" fill="#E9E2D8"/>
<path fill-rule="evenodd" clip-rule="evenodd" d="M51.497 295.792C52.2185 295.977 52.6121 295.977 52.8745 296.1C53.2024 296.223 53.5304 296.347 53.6616 296.593C54.0551 297.21 54.3831 297.888 54.6455 298.504C54.9079 299.12 54.3175 300.045 53.6616 300.23C53.3336 300.353 53.0057 300.415 52.6777 300.415C50.7755 300.292 49.3324 299.429 48.3485 297.949C48.2173 297.703 48.2829 297.518 48.4797 297.395C49.2012 296.901 49.9228 296.47 50.6443 295.977C51.0378 295.73 51.497 295.792 51.497 295.792Z" fill="#E9E2D8"/>
<path fill-rule="evenodd" clip-rule="evenodd" d="M44.3478 323.837C43.8886 323.652 43.2327 323.467 42.6424 323.221C42.052 322.974 41.724 322.111 42.1176 321.618C42.9703 320.694 42.7735 319.707 42.5768 318.66C42.4456 318.166 43.1015 317.797 43.6919 317.858C44.479 317.982 45.1349 318.413 45.5285 319.091C46.25 320.324 46.4468 321.618 46.1188 323.036C46.0532 323.406 45.5941 323.776 45.2005 323.776C44.9381 323.837 44.6758 323.837 44.3478 323.837Z" fill="#E9E2D8"/>
<path fill-rule="evenodd" clip-rule="evenodd" d="M82.3262 311.077C82.195 311.878 81.7358 312.31 81.0799 312.495C80.8175 312.556 80.3584 312.556 80.1616 312.433C79.5056 311.94 78.8497 311.385 78.1938 310.83C77.8002 310.461 77.7346 309.536 78.1282 309.105C78.6529 308.427 79.3745 307.995 80.2272 307.81C80.8175 307.687 81.5391 307.995 81.867 308.55C82.3918 309.598 82.4574 310.152 82.3262 311.077Z" fill="#E9E2D8"/>
<path fill-rule="evenodd" clip-rule="evenodd" d="M55.5642 310.461C55.4986 310.708 55.4986 311.016 55.3674 311.324C55.1706 311.879 54.7771 312.187 54.2523 312.372C54.0555 312.434 53.7932 312.495 53.5964 312.434C52.9405 312.064 52.3501 311.571 51.7598 311.139C51.4974 310.955 51.3662 309.599 51.563 309.352C52.0878 308.736 52.6781 308.119 53.2684 307.503C53.3996 307.38 53.7276 307.441 53.9244 307.441C54.5803 307.626 55.105 307.996 55.433 308.551C55.5642 308.736 55.6298 308.92 55.6298 309.105C55.6954 309.598 55.6298 310.03 55.5642 310.461Z" fill="#E9E2D8"/>
<path d="M194.67 49.5078C197.024 46.6017 199.425 43.6956 201.026 40.3424C202.297 37.7046 202.768 35.1115 202.439 32.2054C202.297 29.4334 202.109 26.6615 201.827 23.9342C201.497 20.894 200.226 18.122 198.672 15.4842C196.459 11.9969 194.387 8.37546 192.316 4.70932L188.69 1.08789V1.35615C188.219 3.81514 187.89 6.45297 187.56 8.91197C186.76 15.4395 184.406 21.6988 181.722 27.8239C180.309 30.8641 178.85 34.0832 176.825 36.8551C174.612 39.6271 171.928 41.2366 168.585 42.5331H168.727" fill="white"/>
<path d="M195.517 50.2686C198.813 46.2448 202.203 42.0868 203.38 37.0347C203.945 34.6204 203.616 32.1614 203.475 29.7024C203.286 26.9305 203.192 24.1138 202.533 21.3865C201.356 16.245 197.589 11.6399 194.952 7.0796C194.058 5.51478 193.352 4.17352 192.08 2.92166C191.233 2.07219 190.338 1.22272 189.491 0.328543C188.784 -0.386803 187.466 0.149701 187.466 1.1333C187.466 2.6087 186.995 4.12881 186.807 5.60421C186.524 7.70553 186.289 9.80686 185.912 11.9082C185.159 15.9767 183.747 19.8664 182.193 23.7114C180.639 27.5564 178.944 31.4461 176.684 34.9781C174.659 38.1971 171.505 40.1196 167.973 41.5503C166.843 41.9974 167.503 43.6516 168.586 43.6516C168.633 43.6516 168.68 43.6516 168.727 43.6516C170.233 43.6516 170.233 41.4162 168.727 41.4162C168.68 41.4162 168.633 41.4162 168.586 41.4162C168.774 42.1315 168.962 42.8022 169.198 43.5175C172.541 42.1762 175.413 40.3879 177.673 37.6606C180.356 34.4863 181.957 30.3283 183.558 26.6175C185.442 22.2807 187.042 17.8992 188.078 13.2942C188.549 11.327 188.784 9.31506 189.02 7.30315C189.255 5.29124 189.915 3.14521 189.915 1.1333C189.255 1.40155 188.596 1.6698 187.89 1.93806C189.444 3.50288 191.092 4.88887 192.175 6.76665C194.623 11.1034 197.73 15.3061 199.614 19.8664C200.603 22.236 200.791 24.7397 200.979 27.2434C201.168 29.6577 201.403 32.1167 201.403 34.531C201.309 39.9408 197.212 44.68 193.917 48.7038C192.928 49.8215 194.576 51.431 195.517 50.2686Z" fill="black"/>
<path d="M119.948 43.1144C118.017 40.2083 116.605 37.2575 115.946 33.8596C114.015 24.7837 115.286 15.2159 117.358 6.45295L119.618 1.49023L117.17 2.38442C111.896 3.99394 107.141 6.27412 103.139 10.1638C99.7959 13.5617 97.0651 17.4514 94.8521 21.5199C93.5809 24.113 92.6392 26.7062 92.1213 29.6123C91.1796 37.3916 92.9217 44.8581 95.935 51.9668" fill="white"/>
<path d="M120.937 42.5783C116.134 35.1119 115.663 26.5278 116.511 17.9884C116.699 15.8423 117.076 13.741 117.453 11.6397C117.735 10.0749 117.876 8.15237 118.535 6.72168C119.242 5.20158 119.948 3.63677 120.654 2.11666C121.031 1.35661 120.419 0.0600424 119.336 0.462423C115.428 1.89311 111.473 3.14497 107.847 5.24629C102.715 8.24179 98.9486 12.8915 95.8411 17.6754C92.5923 22.6828 90.8502 27.9584 90.756 33.8153C90.6618 40.164 92.451 46.468 94.8994 52.3249C95.4644 53.6661 97.7244 53.0849 97.1594 51.7436C94.9465 46.5127 93.4398 41.1029 93.1573 35.4696C92.8277 29.3891 94.664 24.0241 97.9127 18.8378C100.785 14.2775 104.316 10.0749 109.072 7.21348C112.462 5.15687 116.275 4.03914 119.995 2.65316C119.571 2.11665 119.1 1.58015 118.677 0.998937C117.923 2.60846 117.217 4.21798 116.464 5.78279C115.852 7.12406 115.71 8.77829 115.381 10.2537C114.91 12.5338 114.58 14.8587 114.298 17.1836C113.168 26.3042 113.827 35.7378 118.959 43.7407C119.713 44.9032 121.737 43.7854 120.937 42.5783Z" fill="black"/>
<path d="M123.103 220.922C117.17 223.784 111.049 227.226 108.507 233.53C105.964 239.655 107.895 245.959 109.778 251.861C111.662 257.762 113.592 263.888 114.628 270.192C115.664 276.496 114.439 282.218 109.119 286.466C104.269 290.132 98.5722 292.591 93.0634 295.229L86.9425 298.269C82.9404 299.476 79.1266 300.325 74.8891 299.878C65.8019 299.252 54.8314 293.172 55.4435 283.202C56.291 271.399 71.8757 268.761 81.3866 266.928L87.79 265.497C89.9088 264.469 92.0276 263.44 93.4872 261.429C94.9468 259.417 95.606 256.958 95.7943 254.499C96.218 250.833 96.4064 246.988 95.3705 243.5C94.0993 240.058 93.4872 236.57 92.6397 232.904C91.6038 228.836 90.0971 224.946 89.9088 220.699C89.4851 216.407 90.0971 212.159 91.1801 207.867" fill="#F2F2F2"/>
<path d="M171.928 225.126C174.282 226.512 176.684 227.898 178.85 229.687C181.627 231.877 183.652 234.336 184.782 237.555C186.053 241.132 186.053 244.038 185.583 247.212C185.206 249.94 183.605 253.204 183.04 255.484C181.675 261.117 181.439 265.364 182.004 271.132C182.381 275.334 182.805 279.314 183.793 283.293C184.782 286.869 186.383 290.446 188.737 293.263C190.715 295.856 193.493 297.063 196.647 297.465L202.58 297.868C209.313 297.063 215.81 296.482 222.543 295.498C226.31 294.917 230.077 293.889 232.808 290.938C235.962 287.942 236.951 283.561 235.962 279.403C234.785 274.843 231.16 272.026 227.393 269.433L224.709 268.718C221.931 267.51 219.153 267.466 215.999 267.644C212.044 268.047 208.277 269.254 204.51 270.014C201.921 270.595 198.201 271.221 196.977 268.405C195.376 265.633 196.082 261.519 196.694 258.569C198.295 252.22 199.472 246.005 200.037 239.478C200.649 233.889 199.802 228.39 198.06 222.757C198.06 222.757 193.21 214.307 190.95 214.307" fill="#F2F2F2"/>
<path d="M153.048 34.5753C164.112 35.693 175.46 36.5872 185.818 40.8793C195.47 44.9031 203.051 51.8777 208.23 60.8642C213.645 70.5214 216.234 82.0116 217.647 93.0101C219.295 103.561 218.965 114.381 219.766 124.932C220.472 134.366 220.472 141.788 220.472 150.998V156.631C220.472 161.594 219.53 166.288 218.588 171.027C216.47 181.355 214.822 192.398 210.82 202.279C207.524 210.371 201.403 218.687 193.587 223.203L188.643 225.662C181.581 228.121 174.235 228.791 166.702 230.625C161.523 231.742 156.108 232.636 150.646 232.636C146.88 232.86 143.348 232.413 139.582 232.86C133.696 233.307 128.046 231.966 122.114 231.295C118.582 231.072 114.58 230.848 111.049 230.177C107.989 229.507 103.28 227.942 100.926 226.154L96.9239 223.695C92.9217 221.012 89.155 218.061 86.33 214.261C83.505 209.969 81.6216 205.051 80.2091 200.088C78.3258 193.784 76.6778 187.48 74.7945 180.997C73.1465 175.141 72.2049 169.328 70.7923 163.248C69.3798 157.615 69.1444 152.473 69.3798 146.616C69.8507 136.959 70.5569 127.302 70.7923 117.6V110.849C70.7923 110.849 70.7923 111.296 71.2632 110.849C71.734 96.8997 72.6757 82.1011 78.7966 68.5989C85.8592 52.8613 100.031 43.4277 117.029 38.9121C126.916 36.6766 137.322 35.7825 147.68 34.3965L153.048 34.5753Z" fill="#E9E2D8"/>
<path d="M212.232 160.7C215.293 162.935 218.588 164.724 222.12 165.886C226.593 167.004 231.066 166.333 235.586 166.557C242.413 166.78 249.805 166.825 255.785 162.622L260.87 158.912C265.814 154.396 270.522 149.925 274.807 144.739C282.575 134.858 288.508 123.368 291.333 111.252C292.51 105.618 293.452 98.6437 290.862 93.0551C288.743 88.3159 284.882 87.2876 279.892 86.1699C279.892 86.1699 275.701 86.93 274.1 89.0313C269.91 94.4411 266.096 99.8062 263.036 105.887C258.092 115.544 254.796 127.034 244.626 133.517C240.388 136.199 235.444 137.809 230.218 137.809C225.274 137.585 221.037 136.021 216.517 134.456" fill="#F2F2F2"/>
<path d="M91.6976 165.662C82.5163 163.874 73.7587 161.37 64.8128 158.464C57.044 155.782 49.228 153.054 41.2238 150.819C33.6904 148.807 27.0516 145.856 21.1661 140.938C12.4556 133.964 4.40425 124.306 0.872963 113.979C-0.539552 109.239 0.119622 104.724 0.402125 99.8059C0.731711 94.6196 2.61506 90.5958 6.75844 88.3603C6.75844 88.3603 11.0902 87.7791 13.9623 89.0757C19.424 91.5347 23.0494 95.1114 26.5807 100.074C29.8766 104.59 32.2308 109.955 35.0558 114.694C38.1163 119.657 42.1184 123.904 47.3447 126.81C52.0531 129.493 57.9385 130.834 63.4003 129.94C68.1087 129.269 71.8754 126.81 75.4066 123.859" fill="#F2F2F2"/>
<path d="M133.32 76.7812C135.533 77.8095 137.887 79.0166 139.441 80.9838C141.183 83.0852 141.936 85.6336 142.266 88.182C143.066 93.2789 141.795 98.2416 139.771 103.025L137.558 107.541C135.533 110.671 133.461 113.398 130.307 115.633C128.753 116.841 127.011 117.601 125.269 118.316C123.715 119.076 122.114 119.657 120.231 119.523L115.993 118.763C111.567 115.633 107.659 112.325 105.917 107.228C104.364 102.712 104.364 97.3474 105.917 92.8317C106.718 90.4175 107.942 88.0479 109.072 85.7677L111.096 82.6381C112.839 79.5085 115.805 76.7812 119.101 75.127C122.867 73.1598 126.634 74.2328 130.26 75.887L133.32 76.7812Z" fill="white"/>
<path d="M188.502 85.3198C185.677 79.7759 182.193 74.3661 175.601 72.5777C172.917 71.8177 169.951 71.8177 167.126 72.7119C164.631 73.7402 162.559 75.3944 160.534 77.0486L158.18 79.2841C155.355 82.5926 153.613 86.3481 153.472 90.819C153.472 95.3347 154.884 99.6714 156.155 103.874L158.698 107.674C159.31 108.703 160.958 109.865 162.041 110.58C163.124 111.341 163.642 111.922 164.772 112.548C166.043 113.218 166.985 114.068 168.209 114.336C169.48 114.47 170.469 114.649 171.74 114.783L177.343 114.023C186.477 109.82 189.585 100.387 190.103 91.4003L188.502 85.3198Z" fill="white"/>
<path d="M117.876 196.019C118.818 191.504 119.43 187.033 120.371 182.696C120.842 180.282 121.313 177.912 122.255 175.811C122.726 174.603 123.526 172.949 125.08 172.949C126.492 173.083 127.764 174.738 128.517 175.811C129.788 177.599 130.542 179.7 131.342 181.667C132.613 184.529 133.225 187.524 133.696 190.52C134.308 193.65 135.25 196.824 136.192 199.954" fill="white"/>
<path d="M160.817 195.306C161.617 192.623 162.371 189.896 163.03 187.079C163.83 183.637 164.584 179.881 165.996 176.573C166.797 174.784 168.35 171.923 170.704 173.13C173.2 174.337 174.612 177.78 175.413 180.194C176.684 183.637 177.437 187.079 177.908 190.701" fill="white"/>
<path d="M92.451 182.516C97.536 190.206 105.022 195.348 113.827 198.79C118.912 200.758 124.233 202.278 129.647 203.082C135.062 203.887 140.947 203.351 146.409 202.993C149.469 202.769 152.53 201.652 155.496 201.026C161.193 199.729 166.843 197.896 172.305 195.929C177.343 194.096 181.816 191.816 185.441 187.971C189.255 183.902 192.174 179.118 195.706 174.782C197.071 173.083 194.623 170.713 193.21 172.412C190.244 176.033 187.513 179.834 184.641 183.545C181.392 187.792 177.249 190.43 172.164 192.397C164.16 195.437 155.826 197.047 147.68 199.55C145.561 200.176 142.689 199.863 140.476 199.908C137.887 199.953 135.297 200.221 132.708 200.087C127.434 199.863 122.067 198.164 117.123 196.465C108.318 193.425 100.502 188.507 95.4643 180.862C94.3343 178.984 91.2739 180.638 92.451 182.516Z" fill="black"/>
<path d="M137.793 41.7731C134.497 34.1278 115.616 49.4183 119.854 60.1932C121.737 54.7834 127.387 51.6538 133.084 50.7596C120.325 55.7223 139.205 66.9443 143.443 69.1797C139.205 62.4287 141.089 56.1247 142.501 48.9712C142.501 52.995 146.739 57.0636 150.505 57.9577C149.564 54.381 148.622 50.3125 148.622 46.2887C154.743 45.8416 153.801 52.1456 157.097 53.0397C160.864 54.381 162.276 52.1456 160.864 47.1829C159.451 40.4318 149.564 34.5749 143.396 39.0905" fill="#191713"/>
<path d="M286.86 109.195C290.156 121.311 286.389 133.472 288.743 145.141C290.156 152.34 290.627 156.363 289.685 163.562C288.272 175.231 292.981 168.524 298.16 173.889C303.339 179.746 296.135 197.54 294.252 202.95L294.064 203.397C293.781 204.202 293.687 204.962 293.734 205.767C294.064 210.908 300.514 216.05 297.218 222.265C294.723 227.048 282.764 227.943 280.88 221.952L279.797 218.822C279.326 213.859 279.797 212.965 276.972 209.388C275.089 207.6 271.793 208.941 270.851 204.426C269.91 198.569 274.618 200.849 276.972 198.122C279.797 194.992 279.797 194.545 280.268 190.029C281.21 175.633 280.739 161.728 283.093 147.332C284.035 142.817 284.976 106.87 273.676 113.174" fill="#EEE5C3"/>
<path d="M8.54755 118.629C12.3143 121.311 16.081 147.377 15.1393 153.234C14.1976 159.538 6.19336 163.114 6.19336 169.418C6.19336 174.694 12.8322 178.763 15.6101 182.876C18.1056 186.631 20.0831 192.175 18.9531 196.557C18.0585 199.865 17.5406 202.771 20.4598 205.633C23.0023 208.136 27.8048 209.165 30.0648 206.214C32.8899 202.503 29.3115 199.686 29.6882 195.976L29.8294 193.293C28.4169 182.965 21.3543 173.085 20.8835 161.818C20.4127 153.726 26.0627 139.776 29.8294 132.578" fill="#EEE5C3"/>
<path d="M127.105 104.411C134.152 104.411 139.865 98.9465 139.865 92.2055C139.865 85.4646 134.152 80 127.105 80C120.058 80 114.345 85.4646 114.345 92.2055C114.345 98.9465 120.058 104.411 127.105 104.411Z" fill="black" stroke="black" stroke-miterlimit="10"/>
<path d="M123.244 91.4913C125.558 91.4913 127.434 89.8899 127.434 87.9146C127.434 85.9392 125.558 84.3379 123.244 84.3379C120.929 84.3379 119.053 85.9392 119.053 87.9146C119.053 89.8899 120.929 91.4913 123.244 91.4913Z" fill="white" stroke="black" stroke-miterlimit="10"/>
<path d="M168.607 104.44C175.654 104.44 181.367 98.9758 181.367 92.2349C181.367 85.4939 175.654 80.0293 168.607 80.0293C161.56 80.0293 155.847 85.4939 155.847 92.2349C155.847 98.9758 161.56 104.44 168.607 104.44Z" fill="black" stroke="black" stroke-miterlimit="10"/>
<path d="M165.688 93.4425C168.002 93.4425 169.878 91.8412 169.878 89.8658C169.878 87.8904 168.002 86.2891 165.688 86.2891C163.374 86.2891 161.498 87.8904 161.498 89.8658C161.498 91.8412 163.374 93.4425 165.688 93.4425Z" fill="white" stroke="black" stroke-miterlimit="10"/>
</svg>
